<?xml version="1.0" encoding="UTF-8"?>
<svg version="1.1" xmlns="http://www.w3.org/2000/svg" width="1536" height="1024">
<path d="M0 0 C506.88 0 1013.76 0 1536 0 C1536 337.92 1536 675.84 1536 1024 C1029.12 1024 522.24 1024 0 1024 C0 686.08 0 348.16 0 0 Z " fill="#FDFDFD" transform="translate(0,0)"/>
<path d="M0 0 C3.61266965 2.76205461 6.83429737 5.74032475 10 9 C10.56074219 9.54011719 11.12148438 10.08023437 11.69921875 10.63671875 C23.23275662 22.65460467 26.57793846 39.65650471 26.4375 55.6875 C26.42920166 56.91412354 26.42090332 58.14074707 26.41235352 59.40454102 C26.07878705 77.41831743 21.96396521 93.55971153 9.15625 107.0078125 C-4.99045143 120.07813447 -23.9690099 125.94699378 -43.01953125 125.3828125 C-61.94524838 123.56267484 -78.30781847 115.41275261 -90.796875 100.98046875 C-103.91273753 83.23684621 -106.76000091 63.18345458 -104.3125 41.75 C-101.6246394 25.64124638 -93.43161279 10.60563823 -80 1 C-72.42329386 -3.90885187 -64.91052273 -8.07124642 -56 -10 C-55.22841553 -10.16983398 -54.45683105 -10.33966797 -53.66186523 -10.51464844 C-34.96768135 -13.92325502 -16.05347006 -9.88055171 0 0 Z " fill="#0E4CB0" transform="translate(645,422)"/>
<path d="M0 0 C2.11696299 0.80918136 4.23417004 1.61772436 6.3515625 2.42578125 C7.5468457 2.8842041 8.74212891 3.34262695 9.97363281 3.81494141 C17.36745836 6.64296384 24.7853196 9.40778247 32.19851685 12.18450928 C34.8286803 13.17014206 37.45824402 14.15735864 40.08764648 15.14501953 C47.43291166 17.90274082 54.77989834 20.65128818 62.15893555 23.31762695 C66.00818217 24.71938321 69.84788149 26.14633381 73.6875 27.57421875 C74.44886765 27.85735428 75.21023529 28.14048981 75.99467468 28.4322052 C79.15890437 29.60934283 82.32288893 30.78713825 85.48681641 31.96508789 C87.8243882 32.8352183 90.16218421 33.70474416 92.5 34.57421875 C93.21559082 34.84086838 93.93118164 35.10751801 94.66845703 35.38224792 C97.45569692 36.41870422 100.24111814 37.43453938 103.0625 38.375 C103.0625 50.585 103.0625 62.795 103.0625 75.375 C96.10997297 73.47885627 89.41869316 71.56328819 82.6796875 69.1171875 C81.83110168 68.81300903 80.98251587 68.50883057 80.10821533 68.19543457 C77.3832017 67.21758178 74.66034088 66.23388468 71.9375 65.25 C70.03382396 64.56554919 68.13001426 63.88147002 66.22607422 63.19775391 C61.62999588 61.5463172 57.03553739 59.89043132 52.44165039 58.23291016 C49.30067824 57.10029075 46.15828121 55.97168824 43.015625 54.84375 C34.7303696 51.86831128 26.45014858 48.87915508 18.17449951 45.87710571 C14.85763825 44.67417993 11.54025079 43.47270881 8.22283936 42.27130127 C5.79465999 41.39118738 3.36729611 40.5088501 0.93994141 39.62646484 C-0.55692516 39.08419676 -2.05383089 38.54203674 -3.55078125 38 C-4.23812851 37.74940826 -4.92547577 37.49881653 -5.63365173 37.2406311 C-12.64507214 34.70740238 -16.00944416 34.38657367 -23.1875 36.5625 C-24.81591979 37.03553204 -26.44483678 37.50685546 -28.07421875 37.9765625 C-29.30084229 38.33282715 -29.30084229 38.33282715 -30.55224609 38.69628906 C-34.01743138 39.68228856 -37.50285521 40.57275626 -41 41.4375 C-41.64799561 41.59822998 -42.29599121 41.75895996 -42.96362305 41.92456055 C-48.51519294 43.29030854 -54.08397922 44.5811442 -59.65258789 45.87524414 C-64.27210658 46.95780336 -68.85728938 48.13422337 -73.4375 49.375 C-79.98966328 51.14997757 -86.56878804 52.73029079 -93.18359375 54.25 C-103.37702875 56.63361404 -113.51366343 59.246619 -123.6328125 61.92578125 C-124.48063797 62.14998749 -125.32846344 62.37419373 -126.20198059 62.60519409 C-129.67161791 63.52328401 -133.14115925 64.44166191 -136.60888672 65.36694336 C-149.0562252 68.68487952 -161.55296696 71.71203806 -174.10453796 74.61029053 C-188.21983132 77.88079996 -202.27264369 81.39236094 -216.32476807 84.9229126 C-219.07328537 85.61276254 -221.82246672 86.29994483 -224.57165241 86.9871254 C-238.18704223 90.39114468 -251.79689411 93.81294871 -265.36155701 97.41505432 C-273.49291879 99.56264844 -281.68779974 101.40061658 -289.89453125 103.234375 C-296.12090515 104.6316824 -302.30353873 106.17989261 -308.48779297 107.75341797 C-322.72777044 111.36663131 -336.97635702 114.94711714 -351.27636719 118.31567383 C-357.18048571 119.709733 -363.07598226 121.13699717 -368.96875 122.578125 C-369.77832657 122.7759256 -370.58790314 122.9737262 -371.42201233 123.17752075 C-374.70517523 123.97981722 -377.98832342 124.78214607 -381.27047729 125.58856201 C-386.48818445 126.87046098 -391.70916113 128.13712563 -396.9375 129.375 C-397.97599091 129.62123108 -397.97599091 129.62123108 -399.03546143 129.87243652 C-400.98095851 130.32860438 -402.92986778 130.7701461 -404.87890625 131.2109375 C-405.98049072 131.46149902 -407.0820752 131.71206055 -408.21704102 131.97021484 C-410.9375 132.375 -410.9375 132.375 -413.9375 131.375 C-396.03641352 124.25746562 -396.03641352 124.25746562 -388.125 122.0390625 C-385.82605445 121.34116831 -383.65580923 120.48429742 -381.4375 119.5625 C-377.18001675 117.81932954 -372.86866922 116.31087766 -368.5 114.875 C-359.22440072 111.82393683 -349.98559469 108.66961815 -340.75 105.5 C-339.97892914 105.23548035 -339.20785828 104.97096069 -338.41342163 104.69842529 C-329.53907477 101.65325745 -320.67001175 98.59384869 -311.8125 95.5 C-297.09671238 90.36339559 -282.33841829 85.35016476 -267.5849762 80.32301331 C-261.53077259 78.25989483 -255.47776143 76.19331385 -249.42544556 74.12466431 C-245.15715099 72.66610645 -240.88831775 71.20912955 -236.61938477 69.75244141 C-234.55830026 69.04879809 -232.49742382 68.34454496 -230.43676758 67.63964844 C-227.54307056 66.64995443 -224.64857993 65.66261445 -221.75390625 64.67578125 C-220.90760147 64.38572708 -220.06129669 64.09567291 -219.18934631 63.79682922 C-214.22664337 62.10803758 -209.2434025 60.54481239 -204.20713806 59.0891571 C-201.93024479 58.3727171 -199.76050151 57.5222301 -197.5625 56.59375 C-188.34585163 52.80628356 -178.71782185 50.04005223 -169.23242188 47.01123047 C-156.45277527 42.96943475 -156.45277527 42.96943475 -143.93408203 38.19775391 C-140.79687386 36.90496942 -137.60023047 35.86670154 -134.375 34.8125 C-133.17746094 34.41933594 -131.97992187 34.02617187 -130.74609375 33.62109375 C-130.12323486 33.41766357 -129.50037598 33.2142334 -128.85864258 33.00463867 C-125.2132394 31.80988778 -121.57625309 30.58982031 -117.9375 29.375 C-115.30081598 28.4959894 -112.66409806 27.61708094 -110.02734375 26.73828125 C-105.36390481 25.18392006 -100.70052839 23.62937201 -96.03735352 22.07421875 C-88.90141664 19.69463173 -81.76513078 17.31619622 -74.625 14.94921875 C-73.55386963 14.5936792 -72.48273926 14.23813965 -71.37915039 13.87182617 C-69.45688667 13.23398767 -67.53423406 12.59731924 -65.61108398 11.9621582 C-61.14874633 10.48026715 -56.71953558 8.93761749 -52.30859375 7.30859375 C-47.77174488 5.64536277 -43.21669555 4.22827255 -38.5625 2.9375 C-32.09807927 1.11427599 -26.01577806 -1.08104128 -19.8671875 -3.8046875 C-12.92820495 -5.74760261 -6.41610866 -2.4998764 0 0 Z " fill="#2887CE" transform="translate(876.9375,260.625)"/>
<path d="M0 0 C1.28903481 0.47806595 1.28903481 0.47806595 2.60411072 0.96578979 C5.33385554 1.98178703 8.05549538 3.01774678 10.77734375 4.0546875 C12.57567003 4.72790459 14.37449533 5.39979023 16.17382812 6.0703125 C21.36031479 8.00731055 26.53798063 9.96714785 31.71484375 11.9296875 C41.55725033 15.65276408 51.42188386 19.29764578 61.3425293 22.80737305 C63.28185615 23.49378463 65.22006862 24.18327678 67.15820312 24.87304688 C74.87399843 27.61188449 82.61638031 30.25060667 90.39648438 32.80126953 C94.9094846 34.33592867 99.3228001 36.07986206 103.71484375 37.9296875 C104.47855014 48.94887965 104.84863586 59.88440554 104.71484375 70.9296875 C99.47671217 70.13886569 94.36303828 68.97225742 89.21484375 67.7421875 C88.29703125 67.52296631 87.37921875 67.30374512 86.43359375 67.07788086 C74.34062959 64.15425068 62.34468803 60.86309006 50.3984375 57.390625 C40.91725508 54.63566554 31.4476589 52.08493149 21.81591797 49.9074707 C16.9932501 48.79264934 12.27196476 47.51789514 7.55078125 46.02734375 C6.50575439 45.70113037 5.46072754 45.37491699 4.3840332 45.03881836 C2.38613112 44.40592694 0.39431012 43.75332341 -1.58911133 43.07641602 C-6.86100568 41.41292981 -11.26325504 40.78810439 -16.7902832 41.25585938 C-18.02134293 41.35915558 -19.25240265 41.46245178 -20.52076721 41.56887817 C-26.38303764 42.13076533 -32.23310379 42.76668013 -38.08203125 43.453125 C-39.99076019 43.67338852 -39.99076019 43.67338852 -41.93804932 43.89810181 C-45.29509406 44.28553207 -48.65171062 44.6765516 -52.00823975 45.06842041 C-55.33857799 45.45662058 -58.66930714 45.84141657 -62 46.2265625 C-67.23346645 46.83209738 -72.46667617 47.43978506 -77.69970703 48.04907227 C-82.65062895 48.62500422 -87.6020803 49.19592859 -92.55419922 49.76147461 C-107.16155014 51.43007841 -107.16155014 51.43007841 -121.74267578 53.31030273 C-137.59790392 55.4721571 -153.49857256 57.17916583 -169.41015625 58.8671875 C-170.62214691 58.99582184 -171.83413757 59.12445618 -173.08285522 59.25698853 C-177.97780182 59.77620544 -182.87280347 60.29490002 -187.76786804 60.81300354 C-198.92212838 61.99449948 -210.07398329 63.1965538 -221.22265625 64.4296875 C-222.5745253 64.57916336 -222.5745253 64.57916336 -223.95370483 64.73165894 C-239.58121133 66.4659542 -255.18522048 68.37506393 -270.78897095 70.30990601 C-286.31760203 72.23231825 -301.85547564 74.04319658 -317.41015625 75.7421875 C-318.36356903 75.84732666 -319.31698181 75.95246582 -320.29928589 76.06079102 C-331.28568997 77.26894751 -342.24809975 78.3151073 -353.28515625 78.9296875 C-350.83488459 76.47941584 -349.32669806 76.30384904 -345.96484375 75.5625 C-344.87042969 75.31628906 -343.77601563 75.07007813 -342.6484375 74.81640625 C-341.49730469 74.56503906 -340.34617187 74.31367188 -339.16015625 74.0546875 C-329.86155515 71.98954578 -320.60566352 69.79878543 -311.37298584 67.45880127 C-307.83681639 66.56263812 -304.29921451 65.67216079 -300.76171875 64.78125 C-299.68813614 64.510849 -299.68813614 64.510849 -298.59286499 64.23498535 C-284.65209462 60.72587672 -270.7069655 57.27897843 -256.68579102 54.10253906 C-247.51090671 52.01328787 -238.39458424 49.71131386 -229.27392578 47.3984375 C-221.8403144 45.52776883 -214.39542698 43.8556674 -206.88110352 42.34716797 C-200.85324168 41.11241042 -194.9766201 39.49611942 -189.06762695 37.7890625 C-182.80009341 36.0056124 -176.48450194 34.6177299 -170.09179688 33.36132812 C-165.04142763 32.35661276 -160.11367278 31.0826508 -155.15356445 29.70166016 C-150.25191079 28.3824816 -145.29913631 27.29395271 -140.34765625 26.1796875 C-131.06602568 24.06740834 -121.8238196 21.83440493 -112.59765625 19.4921875 C-102.50553898 16.93336299 -92.38475464 14.56420007 -82.22265625 12.3046875 C-73.20502122 10.29964051 -64.2369554 8.21004019 -55.32373047 5.78173828 C-45.23197338 3.0577074 -35.01813415 0.82055587 -24.82446289 -1.48535156 C-23.33901008 -1.82754413 -21.85710876 -2.18772842 -20.38705444 -2.5909729 C-13.08425573 -4.25638211 -6.82615002 -2.63843149 0 0 Z " fill="#0C3FA2" transform="translate(876.28515625,310.0703125)"/>
<path d="M0 0 C1.99764539 0.68034269 3.9567453 1.42507807 5.91894531 2.20166016 C11.84047624 4.42280571 17.74096613 6.34058217 23.85644531 7.95166016 C31.35570336 9.94763545 38.63315562 12.39200231 45.94042969 14.99829102 C52.58891644 17.36859296 59.2793006 19.49791616 66.04394531 21.51416016 C69.60760034 22.59369907 73.16945205 23.67915256 76.73144531 24.76416016 C78.19191284 25.20864502 78.19191284 25.20864502 79.68188477 25.66210938 C82.80277371 26.612131 85.92341261 27.56296906 89.04394531 28.51416016 C90.69837646 29.01834473 90.69837646 29.01834473 92.38623047 29.53271484 C104.99001483 33.37818291 117.5791801 37.2358249 130.04394531 41.51416016 C130.77965397 52.8650937 131.18341759 64.13942108 131.04394531 75.51416016 C125.87792214 74.93936969 121.29570707 73.72565382 116.42285156 71.89697266 C115.7192601 71.63915009 115.01566864 71.38132751 114.29075623 71.11569214 C112.06022221 70.29661009 109.83334835 69.46805624 107.60644531 68.63916016 C106.11644159 68.09035644 104.6262089 67.54217397 103.13574219 66.99462891 C97.7140853 64.99967669 92.29940762 62.98662201 86.89135742 60.95507812 C83.84424308 59.81146966 80.79142556 58.68548659 77.73144531 57.57666016 C76.80074219 57.23892578 75.87003906 56.90119141 74.91113281 56.55322266 C73.96496094 56.21033203 73.01878906 55.86744141 72.04394531 55.51416016 C61.49451165 51.69106839 61.49451165 51.69106839 57.03613281 50.01025391 C51.16497734 47.79773959 45.25590593 45.68770909 39.35253906 43.56298828 C32.32392471 41.01915924 25.32595455 38.39115507 18.47802734 35.3894043 C11.27781906 32.8003625 2.83455624 37.12715753 -3.95605469 39.51416016 C-5.27528087 39.95613479 -6.59535299 40.39558826 -7.91601562 40.83325195 C-13.55907367 42.71072223 -19.18904045 44.62616285 -24.81933594 46.54150391 C-27.15606487 47.3356778 -29.49281709 48.12978319 -31.82958984 48.92382812 C-33.65094452 49.54278961 -33.65094452 49.54278961 -35.50909424 50.17425537 C-53.72645005 56.36422274 -71.94782966 62.53985746 -90.21047974 68.59521484 C-102.1910856 72.56905775 -114.13104368 76.65498356 -126.06582642 80.76412964 C-140.38036509 85.68692491 -154.75836689 90.40114025 -169.171875 95.02563477 C-177.28591363 97.63404844 -185.35483696 100.3292977 -193.38174438 103.19491577 C-202.5855976 106.47003732 -211.86918111 109.50842763 -221.14355469 112.57666016 C-231.72457583 116.07732519 -242.28469773 119.5996238 -252.76733398 123.38598633 C-258.0621031 125.25928302 -263.41256212 126.95060424 -268.76855469 128.63916016 C-281.35265881 132.62605064 -293.83963454 136.83854492 -306.3059082 141.18017578 C-313.1184388 143.5515765 -319.92497922 145.881195 -326.85327148 147.89331055 C-331.64690482 149.30863733 -336.37354825 150.95039224 -341.08105469 152.62744141 C-342.68980469 153.19011719 -342.68980469 153.19011719 -344.33105469 153.76416016 C-345.32878906 154.11994141 -346.32652344 154.47572266 -347.35449219 154.84228516 C-349.95605469 155.51416016 -349.95605469 155.51416016 -352.95605469 154.51416016 C-325.82612218 141.66935514 -298.70030871 128.82884036 -271.28881836 116.5925293 C-261.77987404 112.3455456 -252.30038253 108.03620058 -242.83105469 103.70166016 C-242.09884705 103.36661469 -241.3666394 103.03156921 -240.61224365 102.68637085 C-233.20342124 99.29588075 -225.7968152 95.90057995 -218.39230347 92.50068665 C-214.76837709 90.83707786 -211.14368841 89.17513626 -207.51855469 87.51416016 C-206.80481689 87.18709076 -206.0910791 86.86002136 -205.35571289 86.52304077 C-192.43972667 80.60892277 -179.46988528 74.81942864 -166.4699707 69.09228516 C-158.6064186 65.62195485 -150.7988693 62.0546516 -143.03050232 58.37600708 C-136.85784379 55.45603776 -130.64001321 52.64786089 -124.39355469 49.88916016 C-123.25845459 49.38610352 -122.12335449 48.88304687 -120.95385742 48.36474609 C-111.48842351 44.17614873 -102.00411994 40.03086882 -92.5173645 35.89083862 C-80.84298993 30.79538166 -69.2014092 25.62840136 -57.56698608 20.44247437 C-45.40007055 15.02134947 -33.19895663 9.6837295 -20.96728516 4.41040039 C-19.80600098 3.90968018 -18.6447168 3.40895996 -17.44824219 2.89306641 C-16.43101074 2.45551025 -15.4137793 2.0179541 -14.36572266 1.56713867 C-9.46539854 -0.57420864 -5.29873856 -1.31608709 0 0 Z " fill="#89C33D" transform="translate(846.9560546875,210.48583984375)"/>
<path d="M0 0 C8.10274052 -0.07003832 16.20535095 -0.12308072 24.308321 -0.15543652 C28.07235665 -0.17097905 31.83618262 -0.19200352 35.60009766 -0.22631836 C39.24410893 -0.25932566 42.88792073 -0.27693837 46.53207016 -0.28463173 C47.91049202 -0.29010214 49.28890511 -0.30078004 50.66724014 -0.31719017 C67.07236438 -0.50443196 84.1069733 2.17910794 97.03125 13.06640625 C105.53697858 21.42024682 108.04127215 31.3801691 108.4375 43.0625 C108.18325463 53.09966511 104.72545319 62.45102192 98 70 C88.66220736 78 88.66220736 78 84 78 C89.02034771 86.64615438 94.30414053 95.07189684 99.875 103.375 C100.46829102 104.25929688 101.06158203 105.14359375 101.67285156 106.0546875 C102.86521165 107.8312327 104.05759427 109.60776278 105.25 111.38427734 C107.98303675 115.46934372 110.6883693 119.57179151 113.375 123.6875 C113.84534668 124.40019043 114.31569336 125.11288086 114.80029297 125.84716797 C118 130.76764414 118 130.76764414 118 133 C104.47 133 90.94 133 77 133 C74.03 127.72 71.06 122.44 68 117 C65.76340873 113.15739827 63.51996646 109.32251143 61.25 105.5 C60.71246094 104.58992187 60.17492188 103.67984375 59.62109375 102.7421875 C56.78992546 97.96157729 53.91119749 93.22917054 50.87402344 88.57617188 C50 87 50 87 50 85 C45.71 85 41.42 85 37 85 C37 100.51 37 116.02 37 132 C25.45 132 13.9 132 2 132 C1.65803109 119.75018523 1.32120506 107.50036011 1 95.25 C0.9762455 94.34433289 0.952491 93.43866577 0.92801666 92.5055542 C0.12344932 61.66194625 -0.27948593 30.8552471 0 0 Z " fill="#0E4CB0" transform="translate(1086,414)"/>
<path d="M0 0 C7.64971047 -0.05094801 15.29937673 -0.0858374 22.94921875 -0.10986328 C25.54851924 -0.11988546 28.14780855 -0.13350679 30.74707031 -0.15087891 C34.49547086 -0.17529378 38.24372159 -0.18652129 41.9921875 -0.1953125 C43.14363251 -0.20563507 44.29507751 -0.21595764 45.48141479 -0.22659302 C59.93900126 -0.22857777 72.16299258 2.3942836 82.8046875 12.65234375 C91.53787435 21.99157025 93.60323323 33.10482586 93.28515625 45.67578125 C92.215549 58.14476437 86.27178252 67.85262848 77 76 C75.67143063 77.00632063 74.33872512 78.00722972 73 79 C75.07898539 83.04391403 77.16294812 87.0852443 79.25 91.125 C79.56246674 91.73014435 79.87493347 92.3352887 80.1968689 92.95877075 C85.10385368 102.4521362 90.13654632 111.8666455 95.35449219 121.19384766 C96.05493652 122.45720947 96.05493652 122.45720947 96.76953125 123.74609375 C97.17792236 124.47497803 97.58631348 125.2038623 98.00708008 125.95483398 C99 128 99 128 100 132 C88.45 132 76.9 132 65 132 C59 119.0625 59 119.0625 57.05200195 114.86010742 C54.50576175 109.37275145 51.95619274 103.88760795 49.35546875 98.42578125 C48.98228516 97.64130615 48.60910156 96.85683105 48.22460938 96.04858398 C47.5482791 94.63112436 46.86874057 93.21518974 46.18554688 91.80102539 C44 87.2189092 44 87.2189092 44 85 C40.37 85 36.74 85 33 85 C33 100.51 33 116.02 33 132 C22.77 132 12.54 132 2 132 C1.20027244 119.56054022 0.70048464 107.14914364 0.4375 94.6875 C0.40573166 93.2463533 0.40573166 93.2463533 0.37332153 91.77609253 C-0.28091497 61.19045859 -0.0908714 30.59069377 0 0 Z " fill="#0D4AAF" transform="translate(982,414)"/>
<path d="M0 0 C0.73476563 0.30566895 1.46953125 0.61133789 2.2265625 0.92626953 C7.2763241 3.06357702 12.25065763 5.25305257 17 8 C18 11 18 11 17.01196289 13.36010742 C16.5039917 14.26607666 15.99602051 15.1720459 15.47265625 16.10546875 C14.92802734 17.08837891 14.38339844 18.07128906 13.82226562 19.08398438 C12.95118164 20.62022461 12.95118164 20.62022461 12.0625 22.1875 C11.1972168 23.74114258 11.1972168 23.74114258 10.31445312 25.32617188 C8.8852447 27.88929772 7.44682855 30.44679174 6 33 C2.67395696 31.92423295 -0.6134936 30.78344268 -3.875 29.52734375 C-4.55046875 29.26759766 -5.2259375 29.00785156 -5.921875 28.74023438 C-7.30860882 28.20456934 -8.69403128 27.66549714 -10.078125 27.12304688 C-18.98772648 23.7139341 -30.58667286 21.53050047 -39.71875 25.046875 C-42.5036268 26.76219767 -44.52255785 28.0451157 -46 31 C-46.50348975 34.77617314 -46.37562111 36.45599701 -44.1875 39.625 C-36.81731058 45.11651368 -27.45122514 46.7147942 -18.69921875 49.015625 C-4.89367353 52.68932869 10.41489917 58.24095834 18.26953125 71.07421875 C23.43340055 80.94578515 23.57558385 93.08297493 21.12890625 103.82421875 C16.23449904 117.38413382 7.55507258 125.35284627 -5.125 131.75 C-25.79860956 140.52325448 -52.3165434 139.0396351 -72.85351562 130.93212891 C-80.12856387 127.77287797 -87.076071 123.8553568 -94 120 C-92.72287446 115.89306101 -91.18709006 112.18406415 -89.1796875 108.3828125 C-88.64472656 107.36445312 -88.10976563 106.34609375 -87.55859375 105.296875 C-86.72521484 103.72679687 -86.72521484 103.72679687 -85.875 102.125 C-85.31167969 101.05507813 -84.74835938 99.98515625 -84.16796875 98.8828125 C-82.78265261 96.25305983 -81.39322404 93.62556917 -80 91 C-76.54860906 92.34119559 -73.55565723 93.81286956 -70.4375 95.8125 C-57.12974255 103.9240839 -43.48448241 107.58733802 -28 106 C-23.41718694 104.86397873 -20.78333039 103.10155836 -18 99.1875 C-16.83821801 95.48431989 -16.50893566 92.85836267 -17 89 C-19.85712688 83.65841497 -24.57218465 82.01863397 -30 80 C-33.82377558 78.9410187 -37.68860659 78.10400613 -41.5625 77.25 C-58.45286261 73.26171006 -72.89763878 67.11931026 -82.87109375 52.30859375 C-86.69956478 44.47943672 -86.06778252 32.50485177 -84.421875 24.01953125 C-80.60001909 13.09249775 -71.15047612 4.96977857 -61 0 C-44.36593666 -7.43458799 -16.70421792 -6.97942439 0 0 Z " fill="#0E4BAF" transform="translate(419,412)"/>
<path d="M0 0 C10.89 0 21.78 0 33 0 C33.99 23.265 33.99 23.265 35 47 C36.835625 43.885625 38.67125 40.77125 40.5625 37.5625 C41.20832031 36.51247803 41.85414063 35.46245605 42.51953125 34.38061523 C45.79731003 29.03526466 48.58294925 23.7890721 50.9375 17.97265625 C56.91957627 4.30071432 56.91957627 4.30071432 63 0 C74.1925358 -3.64242081 87.56165043 -1.4797642 99 0 C97.81753318 3.12086537 96.55264902 5.92810147 94.7421875 8.73046875 C94.062771 9.79213257 94.062771 9.79213257 93.36962891 10.87524414 C92.6297876 12.01981079 92.6297876 12.01981079 91.875 13.1875 C86.71290955 21.26481396 81.64385536 29.39576771 76.625 37.5625 C75.95968262 38.64362061 75.29436523 39.72474121 74.60888672 40.83862305 C73.3360184 42.91026977 72.06807494 44.98495251 70.80566406 47.06298828 C69.61505384 48.99958116 68.39860561 50.92055685 67.15527344 52.82373047 C66.31657715 54.13108154 66.31657715 54.13108154 65.4609375 55.46484375 C64.96126465 56.22273193 64.4615918 56.98062012 63.94677734 57.76147461 C62.72739862 60.64452863 63.05400949 62.04842761 64 65 C64.93490367 67.00537046 64.93490367 67.00537046 66.16015625 68.9140625 C66.61592041 69.66123535 67.07168457 70.4084082 67.54125977 71.17822266 C68.04326904 71.98565918 68.54527832 72.7930957 69.0625 73.625 C70.15728278 75.41603578 71.25097366 77.20773931 72.34375 79 C72.93285156 79.96292969 73.52195312 80.92585938 74.12890625 81.91796875 C77.14170899 86.88060208 80.08629332 91.88349932 83.03561401 96.88400269 C88.55972963 106.24966799 94.12214387 115.58688729 99.90258789 124.79736328 C103 129.78579525 103 129.78579525 103 132 C90.79 132 78.58 132 66 132 C59.23746449 120.22817893 52.53500291 108.42732003 45.9375 96.5625 C45.61280731 95.9795517 45.28811462 95.39660339 44.95358276 94.79598999 C44.01834862 93.11612286 43.08531154 91.43503314 42.15234375 89.75390625 C41.61601318 88.78783447 41.07968262 87.8217627 40.52709961 86.82641602 C38.9553243 83.91731245 37.47874008 80.95748017 36 78 C35.67 95.49 35.34 112.98 35 131 C24.11 131 13.22 131 2 131 C1.73702931 117.16816123 1.47585138 103.33629163 1.21769714 89.50436211 C1.09771473 83.07938438 0.97699338 76.65442242 0.85449219 70.22949219 C0.73596354 64.01140732 0.61949484 57.79328677 0.50436401 51.57513809 C0.46042959 49.22088407 0.41579362 46.86664302 0.37039185 44.51241684 C0.0847567 29.67165669 -0.04329196 14.84373048 0 0 Z " fill="#0E4BB0" transform="translate(791,413)"/>
<path d="M0 0 C24.42 0 48.84 0 74 0 C74 8.58 74 17.16 74 26 C60.47 26 46.94 26 33 26 C33 33.92 33 41.84 33 50 C45.21 50 57.42 50 70 50 C70 58.58 70 67.16 70 76 C58.12 76 46.24 76 34 76 C34 85.57 34 95.14 34 105 C48.19 105 62.38 105 77 105 C77 113.91 77 122.82 77 132 C52.25 132 27.5 132 2 132 C1.855625 123.069375 1.71125 114.13875 1.5625 104.9375 C1.21624805 83.26397358 1.21624805 83.26397358 0.7109375 61.59375 C0.68783005 60.74905655 0.6647226 59.9043631 0.64091492 59.03407288 C0.5371193 55.31074122 0.42661734 51.58777845 0.30493164 47.86499023 C-0.16905552 31.89724965 0 16.00229003 0 0 Z " fill="#0F4BB0" transform="translate(896,413)"/>
<path d="M0 0 C0.82411377 0.15686279 1.64822754 0.31372559 2.49731445 0.4753418 C3.29226318 0.64332275 4.08721191 0.81130371 4.90625 0.984375 C5.60041016 1.13100586 6.29457031 1.27763672 7.00976562 1.42871094 C10.66450508 2.63405834 14.05790961 4.5289548 17.5 6.25 C15.85 14.5 14.2 22.75 12.5 31.25 C3.05308219 29.15068493 3.05308219 29.15068493 -1.5625 27.625 C-10.75671034 25.10338113 -22.10811227 24.33899084 -30.68359375 29.07421875 C-31.28300781 29.46222656 -31.88242187 29.85023438 -32.5 30.25 C-33.551875 30.91 -34.60375 31.57 -35.6875 32.25 C-42.74879761 38.62287027 -45.83967925 49.33726712 -46.71875 58.54003906 C-47.44653639 72.75006837 -45.97565347 85.95483202 -36.5 97.25 C-31.0487265 103.00492534 -24.7241863 105.59860215 -16.93945312 105.81835938 C-16.15505859 105.81642578 -15.37066406 105.81449219 -14.5625 105.8125 C-13.74072266 105.81443359 -12.91894531 105.81636719 -12.07226562 105.81835938 C-4.5895376 105.62826698 1.58466303 103.5595713 8.375 100.5625 C11.5 99.25 11.5 99.25 14.5 99.25 C15.67580168 102.99719776 16.83904233 106.74817925 18 110.5 C18.33386719 111.56347656 18.66773438 112.62695312 19.01171875 113.72265625 C19.32753906 114.74746094 19.64335938 115.77226563 19.96875 116.828125 C20.26201172 117.77075195 20.55527344 118.71337891 20.85742188 119.68457031 C21.5 122.25 21.5 122.25 21.5 126.25 C-0.48776341 135.76571273 -23.50242822 139.42633546 -46.37841797 130.51855469 C-62.0548955 124.00205814 -72.1556993 113.12349996 -78.66015625 97.57421875 C-86.34106339 76.31775481 -86.64558223 50.60897976 -77.25 29.875 C-69.19450028 15.26212704 -56.6745574 5.9832433 -41.140625 0.40234375 C-39.1875 -0.125 -39.1875 -0.125 -35.5 -0.75 C-34.86707031 -0.85828125 -34.23414063 -0.9665625 -33.58203125 -1.078125 C-22.25255427 -2.69358513 -11.18346704 -2.17735807 0 0 Z " fill="#0E4BAF" transform="translate(761.5,411.75)"/>
<path d="M0 0 C33.33 0 66.66 0 101 0 C101 9.24 101 18.48 101 28 C90.44 28 79.88 28 69 28 C69 62.65 69 97.3 69 133 C57.12 133 45.24 133 33 133 C33 98.35 33 63.7 33 28 C22.11 28 11.22 28 0 28 C0 18.76 0 9.52 0 0 Z " fill="#114EB1" transform="translate(441,411)"/>
<path d="M0 0 C7.36766989 4.6885172 10.25914175 11.84022025 12.38476562 19.99682617 C13.36915463 24.80197268 13.4887721 29.48306282 13.4375 34.375 C13.43137695 35.376521 13.42525391 36.37804199 13.41894531 37.40991211 C13.18855818 48.35595928 11.28426478 58.89751147 3.109375 66.8359375 C-4.18988079 73.45933628 -9.36241369 74.56441147 -19.078125 74.30078125 C-26.54830848 73.72786877 -30.15057793 71.13525443 -35.25 65.8125 C-44.78563183 54.36974181 -45.93327702 40.51536102 -45.1953125 26.13427734 C-44.29942974 16.34451851 -39.505964 7.505964 -32.625 0.625 C-22.36331428 -5.72747211 -10.44862688 -6.32185828 0 0 Z " fill="#FBFCFD" transform="translate(622,443)"/>
<path d="M0 0 C17.33636298 0.00444228 34.67271912 0.00366858 52.00908197 -0.00090971 C141.67523123 -0.023932 231.33985772 -0.02829889 321.00419916 0.60211764 C321.77140103 0.60749078 322.53860289 0.61286393 323.3290533 0.6183999 C370.84488484 0.95187099 418.35986125 1.39760728 465.87138666 2.12946139 C465.87138666 2.45946139 465.87138666 2.78946139 465.87138666 3.12946139 C412.26804174 3.81510396 358.6658623 4.39350089 305.05888666 4.69196139 C304.15726502 4.69702464 303.25564338 4.70208789 302.32669987 4.70730457 C217.98819523 5.17985453 133.64855284 5.29268333 49.30888666 5.31696139 C48.07096115 5.31732951 48.07096115 5.31732951 46.80802704 5.31770507 C-34.97522879 5.34150431 -116.7555982 5.19312032 -372.12861334 3.12946139 C-372.12861334 2.79946139 -372.12861334 2.46946139 -372.12861334 2.12946139 C-351.74108785 1.85221921 -331.3533569 1.5960229 -310.96538053 1.35429106 C-308.84904557 1.32918176 -306.73271066 1.30406863 -304.61637579 1.27895174 C-303.56345134 1.26647093 -302.51052689 1.25399012 -301.42569564 1.2411311 C-295.60775351 1.17188521 -289.78984805 1.10036269 -283.97197102 1.02585236 C-189.31843751 -0.18610178 -94.65941069 -0.02473677 0 0 Z " fill="#A9B9D3" transform="translate(718.1286133378744,571.8705386146903)"/>
<path d="M0 0 C24.42857143 0 24.42857143 0 33 6 C35.97681893 9.16887177 36.27336267 12.10518128 36.5 16.3125 C36.29928632 22.04827931 35.0469221 25.87848026 31 30 C22.5265613 37.45517139 10.43312424 35.33016216 0 35 C0 23.45 0 11.9 0 0 Z " fill="#F6F8FC" transform="translate(1121,439)"/>
<path d="M0 0 C0 0.33 0 0.66 0 1 C-6.88976668 2.78706837 -13.16736358 3.28312304 -20.26765442 3.24723816 C-21.37099756 3.24965257 -22.47434071 3.25206699 -23.6111185 3.25455457 C-27.29134383 3.26016983 -30.97139391 3.25154487 -34.65161133 3.24291992 C-37.29666591 3.24399332 -39.94170928 3.24585281 -42.58676147 3.24867249 C-49.01384072 3.25369995 -55.4408683 3.24809179 -61.86794112 3.23882218 C-69.35396074 3.22841482 -76.83996932 3.22850897 -84.32599481 3.22899476 C-97.68015001 3.22949477 -111.0342812 3.22034911 -124.38842773 3.20581055 C-137.34676551 3.19171021 -150.30508218 3.18464043 -163.26342773 3.18530273 C-164.06230342 3.18534269 -164.86117911 3.18538265 -165.68426315 3.18542381 C-166.48176039 3.18546417 -167.27925763 3.18550452 -168.10092145 3.1855461 C-182.8597502 3.18623569 -197.61856999 3.18034918 -212.37739584 3.17139288 C-217.59641881 3.16837607 -222.81544014 3.16731329 -228.03446388 3.16686058 C-234.3900788 3.16617886 -240.7456786 3.16171959 -247.1012871 3.15252777 C-250.34430339 3.14790794 -253.58729641 3.14539615 -256.83031654 3.14612198 C-260.34265617 3.14661073 -263.85493291 3.14097618 -267.36726379 3.13371277 C-268.91057577 3.13603567 -268.91057577 3.13603567 -270.48506576 3.1384055 C-271.42451307 3.13518106 -272.36396039 3.13195661 -273.3318758 3.12863445 C-274.14263642 3.12793003 -274.95339703 3.1272256 -275.78872615 3.12649983 C-277.98495718 3.00086055 -279.88141846 2.56766449 -282 2 C-283.63705513 1.9430279 -285.27638547 1.93788173 -286.9140625 1.97265625 C-287.83960938 1.98490234 -288.76515625 1.99714844 -289.71875 2.00976562 C-291.66413442 2.04506494 -293.60945354 2.08415798 -295.5546875 2.12695312 C-296.47765625 2.13791016 -297.400625 2.14886719 -298.3515625 2.16015625 C-299.19541504 2.17699463 -300.03926758 2.19383301 -300.90869141 2.21118164 C-303 2 -303 2 -305 0 C-206.28888867 -1.48686693 -107.60362996 -1.09907559 0 0 Z " fill="#89A0C5" transform="translate(922,573)"/>
<path d="M0 0 C19.06896552 0 19.06896552 0 25.375 4.8125 C29.19365044 9.95299098 29.84124191 15.78532539 29 22 C27.63327098 26.40304178 25.95354906 29.16564457 22.46875 32.21484375 C17.85722973 34.58811488 14.21264028 34.44766318 9.125 34.25 C6.11375 34.1675 3.1025 34.085 0 34 C0 22.78 0 11.56 0 0 Z " fill="#FAFBFD" transform="translate(1014,439)"/>
<path d="M0 0 C0 0.33 0 0.66 0 1 C-41.085 1.495 -41.085 1.495 -83 2 C-75.74 2 -68.48 2 -61 2 C-60.01 2.66 -59.02 3.32 -58 4 C-85.35416092 4.03102129 -112.7083239 4.05110974 -140.0625 4.0625 C-141.07560635 4.0629343 -142.0887127 4.06336861 -143.13251925 4.06381607 C-197.98625775 4.08669576 -252.83592923 4.01698432 -307.6875 3.5 C-308.957253 3.48804218 -310.227006 3.47608437 -311.53523636 3.46376419 C-326.3569785 3.32298604 -341.17856237 3.16983018 -356 3 C-356 2.67 -356 2.34 -356 2 C-332.41493745 1.67927574 -308.82958172 1.38627603 -285.24396706 1.10923481 C-280.17190858 1.04959462 -275.09986049 0.98926822 -270.02783203 0.92712402 C-180.01891202 -0.17550031 -90.01400823 -0.11002761 0 0 Z " fill="#97ABCA" transform="translate(702,572)"/>
<path d="M0 0 C1.65 0 3.3 0 5 0 C5 11.22 5 22.44 5 34 C3.68 34 2.36 34 1 34 C1 33.34 1 32.68 1 32 C-0.0209375 32.495 -0.0209375 32.495 -1.0625 33 C-4.66206323 34.22538323 -7.22129483 34.48092611 -11 34 C-14.70427097 30.29572903 -16.17184384 27.40704098 -16.375 22.25 C-16.3533442 18.50896062 -16.02882688 16.3433025 -13.625 13.4375 C-9.96644295 10.04026846 -9.96644295 10.04026846 -6 9.875 C-3 10 -3 10 -1 11 C-0.67 7.37 -0.34 3.74 0 0 Z " fill="#929292" transform="translate(959,606)"/>
<path d="M0 0 C1.65 0 3.3 0 5 0 C5 11.22 5 22.44 5 34 C3.68 34 2.36 34 1 34 C1 33.34 1 32.68 1 32 C0.01 32.66 -0.98 33.32 -2 34 C-4.15625 34.30078125 -4.15625 34.30078125 -6.5 34.3125 C-7.66015625 34.33763672 -7.66015625 34.33763672 -8.84375 34.36328125 C-11.52867986 33.91092894 -12.35878405 33.13658295 -14 31 C-15.6323191 26.10304271 -15.51721485 21.11008267 -15 16 C-13.19196596 12.92634214 -12.13960536 11.56980268 -9 10 C-5.97507898 10.16926453 -3.00748526 10.61332332 0 11 C0 7.37 0 3.74 0 0 Z " fill="#929293" transform="translate(542,606)"/>
<path d="M0 0 C3.18375929 1.51952148 5.80412358 3.23208854 8 6 C8.87675441 10.71000625 9.09947469 15.73858046 6.96875 20.12109375 C4.81266268 22.61856157 3.00516982 23.77780457 -0.2265625 24.4921875 C-4.25218355 24.72106896 -6.46655058 24.32914964 -9.9375 22.1875 C-13.76497059 18.12806149 -14.43796625 15.66144421 -14.32421875 10.2890625 C-13.82794178 6.78522751 -12.2635642 4.65160378 -10 2 C-6.27420911 -0.48386059 -4.41288598 -0.3804212 0 0 Z " fill="#919191" transform="translate(704,616)"/>
<path d="M0 0 C3.75274969 0.77196202 5.41157077 2.46916783 7.6015625 5.53515625 C9.34505201 9.02213527 9.18238975 12.73105688 8.6015625 16.53515625 C6.6878319 20.11139413 4.50869542 22.23277861 0.6015625 23.53515625 C-6.54324417 24.22658915 -6.54324417 24.22658915 -10.3359375 21.16015625 C-13.58515208 17.02479224 -13.82012932 14.2634144 -13.72265625 9.08984375 C-13.3986293 6.53666752 -12.99869999 5.04205056 -11.5859375 2.91015625 C-7.55301508 -0.09476634 -4.93504007 -0.2593889 0 0 Z " fill="#898989" transform="translate(909.3984375,616.46484375)"/>
<path d="M0 0 C2.87305972 1.40460697 4.74510999 2.74510999 7 5 C7.3359375 8.1171875 7.3359375 8.1171875 7.375 11.875 C7.40335938 13.10992188 7.43171875 14.34484375 7.4609375 15.6171875 C7 19 7 19 5.1640625 21.3828125 C1.65778603 24.00302633 -1.66165405 24.39538072 -5.99609375 24.35546875 C-9.4250568 23.74721215 -10.95649153 21.66275346 -13 19 C-14.58299585 14.25101245 -14.55207896 10.43540528 -12.75 5.75 C-9.26837957 0.27888218 -6.49354367 -0.68353091 0 0 Z " fill="#888888" transform="translate(1192,616)"/>
<path d="M0 0 C2.65563802 1.8968843 3.57242527 3.14485055 5 6 C5.42526125 10.62062705 5.56310381 14.71290557 3.6875 19 C1.6960094 21.36028515 0.02398152 22.83508912 -3.0859375 23.3359375 C-7.17310165 23.40568433 -9.42122719 23.34967524 -13 21.1875 C-16.64796882 17.19753411 -16.41319873 12.84346456 -16.32421875 7.67578125 C-16 5 -16 5 -14.1875 1.8125 C-9.516046 -0.84381698 -5.25275288 -0.89839071 0 0 Z " fill="#89898A" transform="translate(829,617)"/>
<path d="M0 0 C3.375 1 3.375 1 6 2 C6.66 1.34 7.32 0.68 8 0 C11.90224001 -0.33932522 14.70171308 -0.19885794 18 2 C19.17426264 4.34852528 19.11508173 5.73774065 19.09765625 8.3515625 C19.09443359 9.20234375 19.09121094 10.053125 19.08789062 10.9296875 C19.07532227 12.26386719 19.07532227 12.26386719 19.0625 13.625 C19.05798828 14.5221875 19.05347656 15.419375 19.04882812 16.34375 C19.03702591 18.56256648 19.02056155 20.78125018 19 23 C17.68 23 16.36 23 15 23 C14.93941406 21.78441406 14.87882812 20.56882812 14.81640625 19.31640625 C14.73201668 17.73175772 14.6473679 16.14712298 14.5625 14.5625 C14.52318359 13.76005859 14.48386719 12.95761719 14.44335938 12.13085938 C14.5945704 8.24760439 14.5945704 8.24760439 13 5 C10.54190002 4.7499227 10.54190002 4.7499227 8 5 C5.06552643 7.93447357 5.53841577 11.18259456 5.375 15.125 C5.33632813 15.87910156 5.29765625 16.63320313 5.2578125 17.41015625 C5.16348969 19.27303184 5.08065338 21.13648255 5 23 C3.68 23 2.36 23 1 23 C0.92652344 21.30230469 0.92652344 21.30230469 0.8515625 19.5703125 C0.77653486 18.08851661 0.70098703 16.606747 0.625 15.125 C0.5940625 14.37863281 0.563125 13.63226562 0.53125 12.86328125 C0.44356169 8.46526812 0.44356169 8.46526812 -2 5 C-5.30683466 5.28983269 -5.30683466 5.28983269 -8 7 C-8.23701239 9.85877909 -8.42219182 12.69883297 -8.5625 15.5625 C-8.60568359 16.36880859 -8.64886719 17.17511719 -8.69335938 18.00585938 C-8.79975262 20.00368805 -8.90040888 22.0018207 -9 24 C-10.65 24 -12.3 24 -14 24 C-14 16.41 -14 8.82 -14 1 C-12.68 1 -11.36 1 -10 1 C-10 1.66 -10 2.32 -10 3 C-9.46375 2.505 -8.9275 2.01 -8.375 1.5 C-5.30448116 -0.43927505 -3.58922009 -0.35892201 0 0 Z " fill="#838384" transform="translate(468,616)"/>
<path d="M0 0 C1.06751118 0.00085602 2.13502235 0.00171204 3.23488235 0.00259399 C16.32327231 0.01387876 29.41163699 0.03379517 42.5 0.0625 C42.5 0.3925 42.5 0.7225 42.5 1.0625 C56.36 1.3925 70.22 1.7225 84.5 2.0625 C84.5 2.3925 84.5 2.7225 84.5 3.0625 C70.64584476 3.09443019 56.79168746 3.11391642 42.9375 3.125 C41.34434338 3.12628403 41.34434338 3.12628403 39.71900177 3.12759399 C0.10204969 3.15565285 -39.5100055 2.91669545 -79.125 2.5625 C-79.79429739 2.55652628 -80.46359479 2.55055257 -81.15317392 2.54439783 C-98.26885711 2.39148197 -115.3844624 2.23091125 -132.5 2.0625 C-132.5 1.7325 -132.5 1.4025 -132.5 1.0625 C-121.14601308 0.88273787 -109.79184864 0.71761557 -98.4375 0.5625 C-97.56864166 0.55062275 -96.69978333 0.5387455 -95.80459595 0.52650833 C-63.8693138 0.09447583 -31.93800073 -0.02579546 0 0 Z " fill="#A6B6D1" transform="translate(478.5,572.9375)"/>
<path d="M0 0 C1.1446875 -0.00515625 2.289375 -0.0103125 3.46875 -0.015625 C6.5 0.25 6.5 0.25 9.5 2.25 C9.17 3.24 8.84 4.23 8.5 5.25 C7.60796875 5.21519531 6.7159375 5.18039062 5.796875 5.14453125 C4.62640625 5.11746094 3.4559375 5.09039063 2.25 5.0625 C1.08984375 5.02769531 -0.0703125 4.99289062 -1.265625 4.95703125 C-4.77645269 5.275041 -6.10136343 5.70858744 -8.5 8.25 C-10.23620735 12.82387957 -10.55914104 18.59674361 -8.734375 23.16796875 C-7.51630133 25.15674592 -7.51630133 25.15674592 -4.5 27.25 C-1.10568937 27.73194029 2.09785167 27.60673012 5.5 27.25 C5.83 24.28 6.16 21.31 6.5 18.25 C4.19 18.25 1.88 18.25 -0.5 18.25 C-0.5 17.26 -0.5 16.27 -0.5 15.25 C3.13 15.25 6.76 15.25 10.5 15.25 C10.5 20.2 10.5 25.15 10.5 30.25 C4.81669673 32.52332131 0.53605936 32.96794539 -5.5 32.25 C-10.07094857 30.0461498 -12.29750366 27.76762033 -14.5 23.25 C-15.22249297 17.76507417 -15.82392551 11.16162161 -13.48046875 6.0078125 C-9.53308817 1.21371282 -6.00593075 -0.02705374 0 0 Z " fill="#888889" transform="translate(602.5,607.75)"/>
<path d="M0 0 C1.57394531 -0.05607422 1.57394531 -0.05607422 3.1796875 -0.11328125 C6.125 0.3125 6.125 0.3125 8.4921875 1.72265625 C11.00375029 5.70630728 10.55172801 9.46077443 10.375 14.0625 C10.35695313 14.95066406 10.33890625 15.83882812 10.3203125 16.75390625 C10.27327374 18.94120848 10.20757009 21.12629816 10.125 23.3125 C7.79166667 23.3125 5.45833333 23.3125 3.125 23.3125 C2.44566406 23.35890625 1.76632812 23.4053125 1.06640625 23.453125 C-5.32362155 23.74691938 -5.32362155 23.74691938 -7.9375 21.6875 C-9.18015797 18.53943314 -9.5034855 16.66442268 -8.875 13.3125 C-5.56221837 10.16535745 -2.97973142 9.0784421 1.5 9.0625 C2.69625 9.145 3.8925 9.2275 5.125 9.3125 C4.465 7.6625 3.805 6.0125 3.125 4.3125 C-1.95803686 4.19929144 -1.95803686 4.19929144 -6.875 5.3125 C-7.205 3.9925 -7.535 2.6725 -7.875 1.3125 C-5.18932703 -0.03033649 -2.99753147 0.06962481 0 0 Z " fill="#878788" transform="translate(500.875,616.6875)"/>
<path d="M0 0 C2.5390625 0.51171875 2.5390625 0.51171875 5.2265625 2.51171875 C6.96099294 6.47613119 6.83070061 9.21005663 6.5390625 13.51171875 C1.5890625 13.51171875 -3.3609375 13.51171875 -8.4609375 13.51171875 C-7.8009375 15.16171875 -7.1409375 16.81171875 -6.4609375 18.51171875 C-2.5009375 18.51171875 1.4590625 18.51171875 5.5390625 18.51171875 C5.2090625 19.83171875 4.8790625 21.15171875 4.5390625 22.51171875 C0.82709659 24.3677017 -3.41976364 24.10264512 -7.4609375 23.51171875 C-10.5234375 21.07421875 -10.5234375 21.07421875 -12.4609375 18.51171875 C-12.7909375 18.18171875 -13.1209375 17.85171875 -13.4609375 17.51171875 C-14.05588965 12.52261997 -14.53803809 7.16383551 -11.6484375 2.82421875 C-7.60681603 -0.107938 -4.90689959 -0.29758825 0 0 Z " fill="#989899" transform="translate(442.4609375,616.48828125)"/>
<path d="M0 0 C1.59134766 -0.03867187 1.59134766 -0.03867187 3.21484375 -0.078125 C6.0625 0.25 6.0625 0.25 7.72216797 1.49243164 C9.42257122 3.72215896 9.41144625 4.91900308 9.35546875 7.69921875 C9.34580078 8.54677734 9.33613281 9.39433594 9.32617188 10.26757812 C9.30103516 11.14865234 9.27589844 12.02972656 9.25 12.9375 C9.22969727 14.27651367 9.22969727 14.27651367 9.20898438 15.64257812 C9.17364079 17.84566166 9.12430493 20.04752582 9.0625 22.25 C8.11375 22.229375 7.165 22.20875 6.1875 22.1875 C3.15583717 22.02448174 3.15583717 22.02448174 1.0625 23.25 C-5.11785883 23.69948064 -5.11785883 23.69948064 -7.875 22.1875 C-9.59739792 19.04665674 -9.42898241 16.75181214 -8.9375 13.25 C-6.07276392 9.73838804 -3.46412461 9.00645934 0.875 8.5 C2.2697304 8.39988885 3.66550686 8.31087116 5.0625 8.25 C4.4025 6.93 3.7425 5.61 3.0625 4.25 C-0.4594721 4.16995518 -3.55731469 4.20994298 -6.9375 5.25 C-7.2675 3.93 -7.5975 2.61 -7.9375 1.25 C-5.23187257 -0.10281371 -3.01856345 0.04390638 0 0 Z " fill="#909090" transform="translate(1136.9375,616.75)"/>
<path d="M0 0 C2.6875 2.0625 2.6875 2.0625 4 5 C4 7.31 4 9.62 4 12 C-0.95 12 -5.9 12 -11 12 C-10.34 13.98 -9.68 15.96 -9 18 C-5.04 18 -1.08 18 3 18 C2.67 19.32 2.34 20.64 2 22 C-1.71710563 23.85855282 -5.95277281 23.57908439 -10 23 C-13.34625024 20.47323961 -14.67977847 18.96066458 -16 15 C-16.64540286 10.15947854 -16.42628788 6.83787617 -14.1875 2.4375 C-10.3819543 -1.47740046 -5.01761541 -1.0189619 0 0 Z " fill="#828282" transform="translate(568,617)"/>
<path d="M0 0 C2.625 1.5 2.625 1.5 4 4 C4.30531089 6.75832593 4.18619218 9.20711727 4 12 C-0.95 12 -5.9 12 -11 12 C-10.34 13.98 -9.68 15.96 -9 18 C-5.04 18 -1.08 18 3 18 C2.67 19.32 2.34 20.64 2 22 C-1.71196591 23.85598295 -5.95882614 23.59092637 -10 23 C-13.0625 20.5625 -13.0625 20.5625 -15 18 C-15.33 17.67 -15.66 17.34 -16 17 C-16.55108256 12.20287148 -16.85118474 7.59265146 -14.125 3.4375 C-10.19790933 -1.067104 -5.66812096 -0.63080701 0 0 Z " fill="#848484" transform="translate(634,617)"/>
<path d="M0 0 C2.75329021 1.79562405 4.52627461 3.05254922 6 6 C6 8.31 6 10.62 6 13 C1.05 13 -3.9 13 -9 13 C-7.54711014 17.5841963 -7.54711014 17.5841963 -6 19 C-4.14712498 19.07226502 -2.29166122 19.0838122 -0.4375 19.0625 C0.57441406 19.05347656 1.58632812 19.04445313 2.62890625 19.03515625 C3.41136719 19.02355469 4.19382812 19.01195312 5 19 C4.625 20.9375 4.625 20.9375 4 23 C0.54260443 24.72869779 -3.21975568 24.48966895 -7 24 C-9.87029869 22.20606332 -11.49131638 21.01736724 -13 18 C-13.93762008 7.59395414 -13.93762008 7.59395414 -11.125 2.8125 C-7.41285163 -0.3537442 -4.85444724 -0.41139383 0 0 Z " fill="#838383" transform="translate(1076,616)"/>
<path d="M0 0 C1.05445313 0.01289062 2.10890625 0.02578125 3.1953125 0.0390625 C5.875 0.375 5.875 0.375 7.875 2.375 C7.875 3.365 7.875 4.355 7.875 5.375 C3.915 5.375 -0.045 5.375 -4.125 5.375 C-4.455 7.025 -4.785 8.675 -5.125 10.375 C-3.75214844 11.09816406 -3.75214844 11.09816406 -2.3515625 11.8359375 C-1.1509405 12.47376794 0.0495748 13.11179926 1.25 13.75 C1.85328125 14.06710937 2.4565625 14.38421875 3.078125 14.7109375 C5.66050382 16.0882062 7.79330581 17.29330581 9.875 19.375 C10.34516989 23.5281674 10.31521988 25.6767202 8.0625 29.25 C4.62032123 32.5938308 1.55618307 32.58608102 -3.1171875 32.54296875 C-5.71319391 32.32579312 -7.80555553 31.53472223 -10.125 30.375 C-10.125 29.055 -10.125 27.735 -10.125 26.375 C-9.56167969 26.53742187 -8.99835938 26.69984375 -8.41796875 26.8671875 C-6.02053131 27.39813617 -3.88977875 27.50810671 -1.4375 27.5 C-0.64988281 27.50257813 0.13773437 27.50515625 0.94921875 27.5078125 C2.88264914 27.58627778 2.88264914 27.58627778 3.875 26.375 C3.91563832 24.70882885 3.917721 23.04111905 3.875 21.375 C2.94816406 20.89289062 2.02132813 20.41078125 1.06640625 19.9140625 C-0.14338743 19.2763418 -1.35301426 18.63830452 -2.5625 18 C-3.17416016 17.68289063 -3.78582031 17.36578125 -4.41601562 17.0390625 C-9.01171875 14.6015625 -9.01171875 14.6015625 -10.125 12.375 C-10.70617761 5.1683976 -10.70617761 5.1683976 -8.48828125 2.140625 C-5.47072252 -0.11381557 -3.73009422 -0.10081336 0 0 Z " fill="#8A8A8A" transform="translate(368.125,607.625)"/>
<path d="M0 0 C1.32 0 2.64 0 4 0 C4 0.66 4 1.32 4 2 C4.99 1.34 5.98 0.68 7 0 C9.375 -0.30078125 9.375 -0.30078125 12 -0.3125 C12.86625 -0.32925781 13.7325 -0.34601562 14.625 -0.36328125 C17.524709 0.08025976 18.22422164 0.70677419 20 3 C20.34057617 5.17651367 20.34057617 5.17651367 20.29296875 7.66796875 C20.28330078 8.56064453 20.27363281 9.45332031 20.26367188 10.37304688 C20.23853516 11.30181641 20.21339844 12.23058594 20.1875 13.1875 C20.16719727 14.59805664 20.16719727 14.59805664 20.14648438 16.03710938 C20.11113096 18.35865038 20.06178674 20.67903653 20 23 C18.35 23 16.7 23 15 23 C14.67 17.06 14.34 11.12 14 5 C9.11785113 3.41074435 9.11785113 3.41074435 6 6 C5.61615491 8.93597539 5.396157 11.68027373 5.3125 14.625 C5.27833984 15.42679688 5.24417969 16.22859375 5.20898438 17.0546875 C5.12643122 19.03596318 5.06154084 21.01796037 5 23 C3.35 23 1.7 23 0 23 C0 15.41 0 7.82 0 0 Z " fill="#959596" transform="translate(839,617)"/>
<path d="M0 0 C2.30859375 1.01953125 2.30859375 1.01953125 4 2 C4 2.99 4 3.98 4 5 C3.10796875 4.95359375 2.2159375 4.9071875 1.296875 4.859375 C0.12640625 4.82328125 -1.0440625 4.7871875 -2.25 4.75 C-3.41015625 4.70359375 -4.5703125 4.6571875 -5.765625 4.609375 C-9.03306498 4.75065308 -9.03306498 4.75065308 -11.39453125 6.64453125 C-13.41493705 9.60877626 -13.50493527 11.37242204 -13.4375 14.9375 C-13.43556641 16.46697266 -13.43556641 16.46697266 -13.43359375 18.02734375 C-12.9047628 21.65293249 -11.61339383 24.38660617 -9 27 C-6.81360547 27.07258946 -4.62499611 27.08373783 -2.4375 27.0625 C-1.23996094 27.05347656 -0.04242187 27.04445313 1.19140625 27.03515625 C2.58166016 27.01775391 2.58166016 27.01775391 4 27 C4 27.99 4 28.98 4 30 C-0.57380274 32.65132676 -4.83880329 32.52031577 -10 32 C-14.00951228 30.51822372 -16.27693975 28.10735819 -18.26953125 24.29296875 C-20.26105954 18.04148689 -20.06380773 11.28521661 -17.3125 5.375 C-12.02997734 -0.05029354 -7.42556752 -0.9297052 0 0 Z " fill="#838484" transform="translate(805,608)"/>
<path d="M0 0 C2.15917969 1.21801758 2.15917969 1.21801758 4 3 C4.45410156 5.26831055 4.45410156 5.26831055 4.390625 7.88671875 C4.37128906 9.2934082 4.37128906 9.2934082 4.3515625 10.72851562 C4.31804688 11.70498047 4.28453125 12.68144531 4.25 13.6875 C4.23195313 14.67556641 4.21390625 15.66363281 4.1953125 16.68164062 C4.14815447 19.12206842 4.08236042 21.56054769 4 24 C2.68 24 1.36 24 0 24 C-0.06058594 22.71222656 -0.12117187 21.42445313 -0.18359375 20.09765625 C-0.26798247 18.41925841 -0.3526313 16.74087364 -0.4375 15.0625 C-0.47681641 14.21236328 -0.51613281 13.36222656 -0.55664062 12.48632812 C-0.61948242 11.27299805 -0.61948242 11.27299805 -0.68359375 10.03515625 C-0.72025146 9.2862915 -0.75690918 8.53742676 -0.79467773 7.76586914 C-0.81771063 5.97538674 -0.81771063 5.97538674 -2 5 C-4.45809998 4.7499227 -4.45809998 4.7499227 -7 5 C-9.93447357 7.93447357 -9.46158423 11.18259456 -9.625 15.125 C-9.66367187 15.87910156 -9.70234375 16.63320313 -9.7421875 17.41015625 C-9.83651031 19.27303184 -9.91934662 21.13648255 -10 23 C-11.65 23.33 -13.3 23.66 -15 24 C-15 16.41 -15 8.82 -15 1 C-13.68 1 -12.36 1 -11 1 C-11 1.66 -11 2.32 -11 3 C-10.29875 2.505 -9.5975 2.01 -8.875 1.5 C-5.54199763 -0.23895776 -3.70934317 -0.47353317 0 0 Z " fill="#858586" transform="translate(732,616)"/>
<path d="M0 0 C2.6796875 1.37890625 2.6796875 1.37890625 5 4 C5.62341999 7.43356453 5.47068193 10.77486477 5.3125 14.25 C5.28994141 15.18585937 5.26738281 16.12171875 5.24414062 17.0859375 C5.18530595 19.39225674 5.10317146 21.69530838 5 24 C3.35 24 1.7 24 0 24 C-0.33 18.06 -0.66 12.12 -1 6 C-5.88214887 4.41074435 -5.88214887 4.41074435 -9 7 C-9.38394667 9.77262255 -9.60342248 12.34323528 -9.6875 15.125 C-9.72166016 15.87910156 -9.75582031 16.63320313 -9.79101562 17.41015625 C-9.87354278 19.27291201 -9.93844711 21.13643326 -10 23 C-11.32 23 -12.64 23 -14 23 C-14 15.74 -14 8.48 -14 1 C-12.02 1 -10.04 1 -8 1 C-5.14675563 -0.42662219 -3.16545451 -0.31033868 0 0 Z " fill="#99999A" transform="translate(1102,616)"/>
<path d="M0 0 C2.854094 2.05177182 4.7490534 3.62789367 5.40087891 7.19189453 C5.49201459 9.74929422 5.4363865 12.25662614 5.3125 14.8125 C5.28994141 15.69615234 5.26738281 16.57980469 5.24414062 17.49023438 C5.18547428 19.6608891 5.09579979 21.8306669 5 24 C3.35 24 1.7 24 0 24 C-0.33 18.06 -0.66 12.12 -1 6 C-5.88214887 4.41074435 -5.88214887 4.41074435 -9 7 C-9.38394667 9.77262255 -9.60342248 12.34323528 -9.6875 15.125 C-9.72166016 15.87910156 -9.75582031 16.63320313 -9.79101562 17.41015625 C-9.87354278 19.27291201 -9.93844711 21.13643326 -10 23 C-11.32 23 -12.64 23 -14 23 C-14 15.74 -14 8.48 -14 1 C-13.01 1 -12.02 1 -11 1 C-11 1.66 -11 2.32 -11 3 C-10.29875 2.505 -9.5975 2.01 -8.875 1.5 C-5.48749667 -0.26739304 -3.7664742 -0.6277457 0 0 Z " fill="#989898" transform="translate(1031,616)"/>
<path d="M0 0 C1.32 0 2.64 0 4 0 C5.65 4.95 7.3 9.9 9 15 C11.00384991 11.99422513 12.26119742 9.15022736 13.625 5.8125 C14.07101562 4.72582031 14.51703125 3.63914062 14.9765625 2.51953125 C15.31429687 1.68808594 15.65203125 0.85664062 16 0 C17.32 0 18.64 0 20 0 C19.54404073 1.61339436 19.08539995 3.22605635 18.6171875 4.8359375 C18.20725942 6.27328026 17.81642234 7.71621143 17.4453125 9.1640625 C15.26504159 17.21222304 11.63548043 24.52983474 8 32 C6.68 32 5.36 32 4 32 C4.350625 30.824375 4.70125 29.64875 5.0625 28.4375 C6.97222683 20.49414346 4.09044983 14.29737338 1.05859375 6.98828125 C0 4 0 4 0 0 Z " fill="#828283" transform="translate(752,617)"/>
<path d="M0 0 C1.45599609 0.02320313 1.45599609 0.02320313 2.94140625 0.046875 C5.4375 0.25 5.4375 0.25 7.4375 1.25 C7.4375 2.24 7.4375 3.23 7.4375 4.25 C4.1375 4.25 0.8375 4.25 -2.5625 4.25 C-2.8925 5.57 -3.2225 6.89 -3.5625 8.25 C-2.510625 8.4046875 -2.510625 8.4046875 -1.4375 8.5625 C2.06492352 9.40003606 5.83442108 10.64692108 8.4375 13.25 C8.8125 16.0625 8.8125 16.0625 8.4375 19.25 C6.26385732 21.91446522 4.64508397 23.08081135 1.20703125 23.5625 C-2.99654555 23.67221815 -4.96610265 23.64759823 -8.5625 21.25 C-8.5625 20.59 -8.5625 19.93 -8.5625 19.25 C-4.6025 19.25 -0.6425 19.25 3.4375 19.25 C3.4375 17.6 3.4375 15.95 3.4375 14.25 C2.51517578 14.08564453 2.51517578 14.08564453 1.57421875 13.91796875 C0.76597656 13.75941406 -0.04226563 13.60085938 -0.875 13.4375 C-2.07576172 13.21126953 -2.07576172 13.21126953 -3.30078125 12.98046875 C-5.84902707 12.15746017 -6.94718823 11.36785321 -8.5625 9.25 C-9.19931241 4.15550071 -9.19931241 4.15550071 -7.38671875 1.578125 C-4.85986699 -0.26155294 -3.09282702 -0.08236557 0 0 Z " fill="#8F9090" transform="translate(400.5625,616.75)"/>
<path d="M0 0 C1.08667969 0.02707031 2.17335938 0.05414062 3.29296875 0.08203125 C4.54013672 0.13423828 4.54013672 0.13423828 5.8125 0.1875 C6.1425 1.5075 6.4725 2.8275 6.8125 4.1875 C3.5125 4.1875 0.2125 4.1875 -3.1875 4.1875 C-3.5175 5.5075 -3.8475 6.8275 -4.1875 8.1875 C-3.57261719 8.36925781 -2.95773437 8.55101562 -2.32421875 8.73828125 C-1.51597656 8.98964844 -0.70773437 9.24101563 0.125 9.5 C1.32576172 9.86544922 1.32576172 9.86544922 2.55078125 10.23828125 C4.9502961 11.24533152 6.19778351 12.16399452 7.8125 14.1875 C8.37987985 17.34861629 8.08118403 18.73562231 6.4375 21.5 C2.47256745 24.04888521 -1.59010091 23.84756064 -6.1875 23.1875 C-7.1775 22.5275 -8.1675 21.8675 -9.1875 21.1875 C-9.1875 20.5275 -9.1875 19.8675 -9.1875 19.1875 C-5.2275 19.1875 -1.2675 19.1875 2.8125 19.1875 C2.27435528 15.18920551 2.27435528 15.18920551 -0.18359375 13.7734375 C-0.98925781 13.37382813 -1.79492188 12.97421875 -2.625 12.5625 C-5.26578678 11.23150955 -7.08458262 10.29041738 -9.1875 8.1875 C-9.53977814 5.43973052 -9.6474956 3.85687291 -8.0546875 1.5390625 C-5.35682614 -0.41378275 -3.28524025 -0.10597549 0 0 Z " fill="#969797" transform="translate(651.1875,616.8125)"/>
<path d="M0 0 C6.22222222 -0.47863248 6.22222222 -0.47863248 9.4375 1.5 C11.71029038 5.13646461 11.28281164 7.75782535 11 12 C6.05 12 1.1 12 -4 12 C-3.01 13.98 -2.02 15.96 -1 18 C2.96 18 6.92 18 11 18 C10.67 19.32 10.34 20.64 10 22 C5.94607504 23.35130832 2.23873875 23.5502924 -2 23 C-5.49890004 20.88608123 -6.70578686 19.88263941 -8 16 C-8.34710744 9.52066116 -8.34710744 9.52066116 -6 6 C-5.34 6 -4.68 6 -4 6 C-4 7.32 -4 8.64 -4 10 C-0.04 10 3.92 10 8 10 C7.34 8.35 6.68 6.7 6 5 C2.46485707 3.62032476 2.46485707 3.62032476 -1 3 C-0.67 2.01 -0.34 1.02 0 0 Z " fill="#888888" transform="translate(977,617)"/>
<path d="M0 0 C1.49080078 0.02707031 1.49080078 0.02707031 3.01171875 0.0546875 C3.77097656 0.07789063 4.53023437 0.10109375 5.3125 0.125 C5.6425 1.445 5.9725 2.765 6.3125 4.125 C3.0125 4.125 -0.2875 4.125 -3.6875 4.125 C-3.3575 5.445 -3.0275 6.765 -2.6875 8.125 C-0.90443588 9.18539988 -0.90443588 9.18539988 1.25 9.75 C4.06502096 10.61851826 5.17629137 10.98879137 7.3125 13.125 C7.76185048 16.57002033 7.69028761 18.47245776 5.9375 21.5 C1.95749595 23.96381203 -2.11738258 23.78114374 -6.6875 23.125 C-7.6775 22.465 -8.6675 21.805 -9.6875 21.125 C-9.1925 19.64 -9.1925 19.64 -8.6875 18.125 C-5.0575 18.125 -1.4275 18.125 2.3125 18.125 C1.9825 16.805 1.6525 15.485 1.3125 14.125 C-0.47372672 13.10087857 -0.47372672 13.10087857 -2.625 12.5625 C-6.13043593 11.53822562 -6.51752062 11.37996907 -8.6875 8.125 C-9 5.0625 -9 5.0625 -8.6875 2.125 C-5.26655758 -0.15562828 -4.00562778 -0.09425007 0 0 Z " fill="#909090" transform="translate(1212.6875,616.875)"/>
<path d="M0 0 C1.32 0 2.64 0 4 0 C4 1.98 4 3.96 4 6 C6.31 6 8.62 6 11 6 C11 7.32 11 8.64 11 10 C9.02 10 7.04 10 5 10 C5.33 14.95 5.66 19.9 6 25 C7.65 25.33 9.3 25.66 11 26 C11 26.99 11 27.98 11 29 C3.63396226 29.36226415 3.63396226 29.36226415 1.25 28 C-0.74250219 24.81199649 -0.31123006 21.44508765 -0.1875 17.8125 C-0.16719727 16.68811523 -0.16719727 16.68811523 -0.14648438 15.54101562 C-0.11118539 13.69370233 -0.05737917 11.84675934 0 10 C-1.32 10 -2.64 10 -4 10 C-4 8.68 -4 7.36 -4 6 C-2.68 6 -1.36 6 0 6 C0 4.02 0 2.04 0 0 Z " fill="#8D8C8C" transform="translate(665,611)"/>
<path d="M0 0 C1.32 0 2.64 0 4 0 C4.34933594 0.99902344 4.69867187 1.99804688 5.05859375 3.02734375 C5.51807919 4.33078205 5.97772279 5.6341646 6.4375 6.9375 C6.66759766 7.59685547 6.89769531 8.25621094 7.13476562 8.93554688 C8.11964592 12.22328622 8.11964592 12.22328622 10 15 C11.65 10.05 13.3 5.1 15 0 C16.65 0 18.3 0 20 0 C19.54783463 1.59996978 19.0938602 3.19944211 18.6328125 4.796875 C18.1817034 6.36740297 17.74000737 7.9406475 17.3046875 9.515625 C14.61047309 18.98791567 14.61047309 18.98791567 12 22 C9.3984375 22.1171875 9.3984375 22.1171875 7 22 C6.20558928 20.12616097 5.41460026 18.25087114 4.625 16.375 C4.18414063 15.33085938 3.74328125 14.28671875 3.2890625 13.2109375 C1.44295425 8.61244968 0 4.99336461 0 0 Z " fill="#8C8C8C" transform="translate(1040,617)"/>
<path d="M0 0 C1.32 0 2.64 0 4 0 C4 2.31 4 4.62 4 7 C6.31 7 8.62 7 11 7 C11 8.32 11 9.64 11 11 C8.69 11 6.38 11 4 11 C4.33 15.62 4.66 20.24 5 25 C6.98 25.33 8.96 25.66 11 26 C11 27.32 11 28.64 11 30 C3.63396226 30.36226415 3.63396226 30.36226415 1.25 29 C-0.74250219 25.81199649 -0.31123006 22.44508765 -0.1875 18.8125 C-0.16719727 17.68811523 -0.16719727 17.68811523 -0.14648438 16.54101562 C-0.11118539 14.69370233 -0.05737917 12.84675934 0 11 C-1.32 11 -2.64 11 -4 11 C-4 9.68 -4 8.36 -4 7 C-2.68 7 -1.36 7 0 7 C0 4.69 0 2.38 0 0 Z " fill="#868686" transform="translate(866,610)"/>
<path d="M0 0 C1.32 0 2.64 0 4 0 C4 2.31 4 4.62 4 7 C6.31 7 8.62 7 11 7 C11 8.32 11 9.64 11 11 C8.69 11 6.38 11 4 11 C4.33 15.62 4.66 20.24 5 25 C6.98 25.33 8.96 25.66 11 26 C11 27.32 11 28.64 11 30 C3.47017427 30.3703193 3.47017427 30.3703193 1.390625 28.73242188 C-0.30191723 26.62387558 -0.35318217 25.65774276 -0.29296875 22.98828125 C-0.28330078 22.23095703 -0.27363281 21.47363281 -0.26367188 20.69335938 C-0.23853516 19.90767578 -0.21339844 19.12199219 -0.1875 18.3125 C-0.16719727 17.11657227 -0.16719727 17.11657227 -0.14648438 15.89648438 C-0.11117089 13.93070033 -0.05736447 11.96526418 0 10 C-1.32 10 -2.64 10 -4 10 C-4 9.01 -4 8.02 -4 7 C-2.68 7 -1.36 7 0 7 C0 4.69 0 2.38 0 0 Z " fill="#898889" transform="translate(1114,610)"/>
<path d="M0 0 C2.5 0.5625 2.5 0.5625 4.8125 2.6875 C6.79795345 6.0701244 7.06287116 7.70281205 6.5 11.5625 C5.4375 14.4375 5.4375 14.4375 3.5 16.5625 C0 17.125 0 17.125 -3.5 16.5625 C-5.78545181 14.79311796 -6.34903918 13.48336098 -6.8125 10.65625 C-7.02874795 7.03409676 -6.87762637 5.12194647 -4.8125 2.0625 C-2.5 0.5625 -2.5 0.5625 0 0 Z " fill="#F6F6F6" transform="translate(823.5,619.4375)"/>
<path d="M0 0 C2.28837946 1.66525266 2.92598387 2.55880584 3.3984375 5.375 C3.39070312 6.24125 3.38296875 7.1075 3.375 8 C3.38273438 8.86625 3.39046875 9.7325 3.3984375 10.625 C3 13 3 13 1.69921875 14.7890625 C-1.12891886 16.80451689 -3.66171504 16.36417654 -7 16 C-9.14553377 12.78169935 -9.29583868 11.73213493 -9.3125 8 C-9.32925781 7.13375 -9.34601562 6.2675 -9.36328125 5.375 C-9 3 -9 3 -7.66796875 1.2109375 C-5.08254851 -0.66606548 -3.09627067 -0.38703383 0 0 Z " fill="#F8F8F8" transform="translate(910,620)"/>
<path d="M0 0 C1.32 0 2.64 0 4 0 C4 1.98 4 3.96 4 6 C5.98 6 7.96 6 10 6 C10 6.99 10 7.98 10 9 C8.02 9 6.04 9 4 9 C4.33 13.95 4.66 18.9 5 24 C6.98 24.33 8.96 24.66 11 25 C11 26.32 11 27.64 11 29 C3.62352385 29.36277752 3.62352385 29.36277752 1.28125 28 C-0.73888616 24.84661672 -0.57627697 21.45108202 -0.6875 17.8125 C-0.72166016 17.06291016 -0.75582031 16.31332031 -0.79101562 15.54101562 C-0.87334294 13.69453162 -0.93835281 11.84729006 -1 10 C-1.99 9.67 -2.98 9.34 -4 9 C-4 8.01 -4 7.02 -4 6 C-2.68 6 -1.36 6 0 6 C0 4.02 0 2.04 0 0 Z " fill="#8C8C8C" transform="translate(415,611)"/>
<path d="M0 0 C2.28837946 1.66525266 2.92598387 2.55880584 3.3984375 5.375 C3.39070312 6.24125 3.38296875 7.1075 3.375 8 C3.38273438 8.86625 3.39046875 9.7325 3.3984375 10.625 C2.92584138 13.44204351 2.28599151 14.33111887 0 16 C-3 16.4375 -3 16.4375 -6 16 C-7.875 14.5625 -7.875 14.5625 -9 12 C-9.99918844 4.31180003 -9.99918844 4.31180003 -7.6640625 1.24609375 C-5.09032086 -0.68119166 -3.11296207 -0.38912026 0 0 Z " fill="#FAFAFA" transform="translate(704,620)"/>
<path d="M0 0 C2.28837946 1.66525266 2.92598387 2.55880584 3.3984375 5.375 C3.39070313 6.24125 3.38296875 7.1075 3.375 8 C3.38273437 8.86625 3.39046875 9.7325 3.3984375 10.625 C2.92584138 13.44204351 2.28599151 14.33111887 0 16 C-3 16.4375 -3 16.4375 -6 16 C-7.875 14.5625 -7.875 14.5625 -9 12 C-9.99918844 4.31180003 -9.99918844 4.31180003 -7.6640625 1.24609375 C-5.09032086 -0.68119166 -3.11296207 -0.38912026 0 0 Z " fill="#F9F9F9" transform="translate(1192,620)"/>
<path d="M0 0 C1.65 0 3.3 0 5 0 C5 10.56 5 21.12 5 32 C3.35 32 1.7 32 0 32 C0 21.44 0 10.88 0 0 Z " fill="#999899" transform="translate(1005,608)"/>
<path d="M0 0 C3.375 0.75 3.375 0.75 4.375 1.75 C4.52626231 3.72513667 4.59673766 5.70678135 4.625 7.6875 C4.66367187 9.30978516 4.66367187 9.30978516 4.703125 10.96484375 C4.59484375 11.88394531 4.4865625 12.80304687 4.375 13.75 C0.92470958 16.05019361 -0.57054358 16.18132515 -4.625 15.75 C-6.77053377 12.53169935 -6.92083868 11.48213493 -6.9375 7.75 C-6.95425781 6.88375 -6.97101562 6.0175 -6.98828125 5.125 C-6.625 2.75 -6.625 2.75 -5.33203125 0.921875 C-3.625 -0.25 -3.625 -0.25 0 0 Z " fill="#F9F9F9" transform="translate(954.625,620.25)"/>
<path d="M0 0 C3.375 0.75 3.375 0.75 4.375 1.75 C4.52626231 3.72513667 4.59673766 5.70678135 4.625 7.6875 C4.66367187 9.30978516 4.66367187 9.30978516 4.703125 10.96484375 C4.59484375 11.88394531 4.4865625 12.80304687 4.375 13.75 C0.9397952 16.04013653 -0.610331 15.92842973 -4.625 15.75 C-6.31713943 12.79044139 -6.92021319 10.59300083 -6.9375 7.1875 C-6.95425781 6.42308594 -6.97101562 5.65867187 -6.98828125 4.87109375 C-6.625 2.75 -6.625 2.75 -5.33203125 0.95703125 C-3.625 -0.25 -3.625 -0.25 0 0 Z " fill="#F8F8F8" transform="translate(537.625,620.25)"/>
<path d="M0 0 C1.2065625 0.0309375 1.2065625 0.0309375 2.4375 0.0625 C2.4375 1.7125 2.4375 3.3625 2.4375 5.0625 C0.1275 5.7225 -2.1825 6.3825 -4.5625 7.0625 C-4.8925 12.6725 -5.2225 18.2825 -5.5625 24.0625 C-7.2125 24.0625 -8.8625 24.0625 -10.5625 24.0625 C-10.5625 16.4725 -10.5625 8.8825 -10.5625 1.0625 C-8.22916667 1.0625 -5.89583333 1.0625 -3.5625 1.0625 C-2.5625 0.0625 -2.5625 0.0625 0 0 Z " fill="#8E8E8E" transform="translate(891.5625,615.9375)"/>
<path d="M0 0 C2.75329021 1.79562405 4.52627461 3.05254922 6 6 C6.04022391 8.3329866 6.04320247 10.66706666 6 13 C5.01 13 4.02 13 3 13 C3 12.34 3 11.68 3 11 C-0.96 10.67 -4.92 10.34 -9 10 C-9 7 -9 4 -9 1 C-5.89951072 -0.55024464 -3.42105782 -0.28992015 0 0 Z " fill="#8F8F8F" transform="translate(1076,616)"/>
<path d="M0 0 C0.33 0 0.66 0 1 0 C1 2.31 1 4.62 1 7 C1.66 7 2.32 7 3 7 C3 9.97 3 12.94 3 16 C2.195625 15.979375 1.39125 15.95875 0.5625 15.9375 C-1.93354885 15.70366379 -1.93354885 15.70366379 -3 17 C-4.9609375 17.203125 -4.9609375 17.203125 -7.375 17.25 C-8.16648437 17.27578125 -8.95796875 17.3015625 -9.7734375 17.328125 C-12.51012039 16.92482436 -13.32890401 16.15893147 -15 14 C-16.38756043 9.83731872 -15.75242859 6.263762 -15 2 C-14.01 1.67 -13.02 1.34 -12 1 C-11.34 4.63 -10.68 8.26 -10 12 C-5.2102679 12.23428313 -5.2102679 12.23428313 -1 10 C-0.41810734 7.57478506 -0.41810734 7.57478506 -0.3125 4.875 C-0.24675781 3.96492187 -0.18101562 3.05484375 -0.11328125 2.1171875 C-0.07589844 1.41851563 -0.03851562 0.71984375 0 0 Z " fill="#909191" transform="translate(543,623)"/>
<path d="M0 0 C2.8203125 0.0234375 2.8203125 0.0234375 6.125 0.375 C7.22070312 0.48585938 8.31640625 0.59671875 9.4453125 0.7109375 C10.28835938 0.80632813 11.13140625 0.90171875 12 1 C12.125 3.38671875 12.125 3.38671875 12 6 C10 7.8125 10 7.8125 8 9 C8.99 9.66 9.98 10.32 11 11 C9.42102167 12.57897833 7.80637428 12.24543509 5.625 12.3125 C1.31842421 12.25087968 1.31842421 12.25087968 -1.0625 10.375 C-2.24125816 7.38881266 -2.34601802 5.18336574 -2 2 C-1.34 1.34 -0.68 0.68 0 0 Z " fill="#8C8C8D" transform="translate(494,628)"/>
<path d="M0 0 C1.32 0 2.64 0 4 0 C4 10.89 4 21.78 4 33 C2.68 33 1.36 33 0 33 C0 22.11 0 11.22 0 0 Z " fill="#808080" transform="translate(923,606)"/>
<path d="M0 0 C3.63 0 7.26 0 11 0 C11 4.95 11 9.9 11 15 C6.5545917 16.77816332 4.71884603 17.23418906 0.1875 17.125 C-1.27623047 17.09792969 -1.27623047 17.09792969 -2.76953125 17.0703125 C-3.50558594 17.04710937 -4.24164062 17.02390625 -5 17 C-4.67 15.68 -4.34 14.36 -4 13 C-0.7 12.67 2.6 12.34 6 12 C6.33 9.03 6.66 6.06 7 3 C4.69 3 2.38 3 0 3 C0 2.01 0 1.02 0 0 Z " fill="#868585" transform="translate(602,623)"/>
<path d="M0 0 C0 0.33 0 0.66 0 1 C-0.763125 1.061875 -1.52625 1.12375 -2.3125 1.1875 C-5.11637181 1.78344523 -5.11637181 1.78344523 -6.8125 4 C-8.39678806 8.00241194 -8.61422989 11.74027583 -8 16 C-6.33045181 19.22404978 -6.33045181 19.22404978 -3.375 19.6875 C-2.59125 19.790625 -1.8075 19.89375 -1 20 C-1 20.33 -1 20.66 -1 21 C-2.65 21.33 -4.3 21.66 -6 22 C-4.02 22.33 -2.04 22.66 0 23 C0 23.33 0 23.66 0 24 C-7.22249793 24.6120761 -7.22249793 24.6120761 -10.9375 21.6875 C-14.17435625 17.46977823 -14.35372437 14.2174344 -14 9 C-11.07872378 1.40468183 -8.06227351 -0.46513116 0 0 Z " fill="#919091" transform="translate(1192,616)"/>
<path d="M0 0 C0 0.33 0 0.66 0 1 C-3 2 -6 3 -9 4 C-8.67 4.99 -8.34 5.98 -8 7 C-7.97827148 8.90112305 -7.97827148 8.90112305 -8.12109375 11.01171875 C-8.16943359 11.76904297 -8.21777344 12.52636719 -8.26757812 13.30664062 C-8.32365234 14.09232422 -8.37972656 14.87800781 -8.4375 15.6875 C-8.48970703 16.48478516 -8.54191406 17.28207031 -8.59570312 18.10351562 C-8.72519022 20.06936522 -8.86190041 22.03473665 -9 24 C-10.65 24 -12.3 24 -14 24 C-14 16.41 -14 8.82 -14 1 C-12.68 1 -11.36 1 -10 1 C-10 1.66 -10 2.32 -10 3 C-9.46375 2.505 -8.9275 2.01 -8.375 1.5 C-5.40641555 -0.37489544 -3.44687573 -0.23501425 0 0 Z " fill="#9B9B9B" transform="translate(468,616)"/>
<path d="M0 0 C0.66 0.99 1.32 1.98 2 3 C4.19454681 3.57993699 4.19454681 3.57993699 6.625 3.6875 C7.44226563 3.75324219 8.25953125 3.81898438 9.1015625 3.88671875 C9.72804688 3.92410156 10.35453125 3.96148438 11 4 C11 4.33 11 4.66 11 5 C6.545 5.495 6.545 5.495 2 6 C2.66 7.98 3.32 9.96 4 12 C7.96 12 11.92 12 16 12 C15.67 13.32 15.34 14.64 15 16 C11.26428749 17.86785626 7.06846525 17.53650091 3 17 C-0.125 15.125 -0.125 15.125 -2 12 C-2.49561367 8.6053128 -2.56962976 5.38779802 -2 2 C-1.34 1.34 -0.68 0.68 0 0 Z " fill="#777677" transform="translate(621,623)"/>
<path d="M0 0 C2.475 0.495 2.475 0.495 5 1 C5.33 0.67 5.66 0.34 6 0 C7.99958364 -0.04080783 10.00045254 -0.04254356 12 0 C12 0.99 12 1.98 12 3 C8.535 4.485 8.535 4.485 5 6 C4.67 11.61 4.34 17.22 4 23 C2.68 23 1.36 23 0 23 C0 15.41 0 7.82 0 0 Z " fill="#858586" transform="translate(1153,617)"/>
<path d="M0 0 C0 0.33 0 0.66 0 1 C-1.65 1 -3.3 1 -5 1 C-5 1.66 -5 2.32 -5 3 C-4.05125 3.28875 -3.1025 3.5775 -2.125 3.875 C1 5 1 5 3 7 C3 8.32 3 9.64 3 11 C1.04233719 11.08082094 -0.91626728 11.13910778 -2.875 11.1875 C-4.51082031 11.23970703 -4.51082031 11.23970703 -6.1796875 11.29296875 C-7.11039063 11.19628906 -8.04109375 11.09960938 -9 11 C-9.66 10.01 -10.32 9.02 -11 8 C-11.66 8.66 -12.32 9.32 -13 10 C-12.52048204 5.68433833 -11.29764982 3.7980059 -8 1 C-5.29120665 -0.35439668 -2.99066732 -0.06501451 0 0 Z " fill="#939394" transform="translate(982,616)"/>
<path d="M0 0 C0.99 0 1.98 0 3 0 C3 0.66 3 1.32 3 2 C3.99 1.34 4.98 0.68 6 0 C8.6875 -0.125 8.6875 -0.125 11 0 C9 2 7 4 5 6 C4.76321284 8.69235776 4.57801975 11.36498156 4.4375 14.0625 C4.39431641 14.82111328 4.35113281 15.57972656 4.30664062 16.36132812 C4.20026367 18.24065438 4.09960066 20.12030244 4 22 C2.68 22 1.36 22 0 22 C0 14.74 0 7.48 0 0 Z " fill="#838383" transform="translate(1017,617)"/>
<path d="M0 0 C-0.33 0.99 -0.66 1.98 -1 3 C-4.5625 4.1875 -4.5625 4.1875 -8 5 C-7.67 6.65 -7.34 8.3 -7 10 C-5.02 10 -3.04 10 -1 10 C-2 13 -2 13 -4 14 C-10.18035883 14.44948064 -10.18035883 14.44948064 -12.9375 12.9375 C-14.63335287 9.84506242 -14.43060657 7.44485259 -14 4 C-10.27455317 -0.13938537 -5.26381272 -0.15039465 0 0 Z " fill="#8A8A8A" transform="translate(1142,626)"/>
<path d="M0 0 C0.99 0 1.98 0 3 0 C3 0.66 3 1.32 3 2 C4.65 1.67 6.3 1.34 8 1 C8 1.99 8 2.98 8 4 C7.01 4.66 6.02 5.32 5 6 C4.61605333 8.77262255 4.39657752 11.34323528 4.3125 14.125 C4.27833984 14.87910156 4.24417969 15.63320313 4.20898438 16.41015625 C4.12645722 18.27291201 4.06155289 20.13643326 4 22 C2.68 22 1.36 22 0 22 C0 14.74 0 7.48 0 0 Z " fill="#7F807F" transform="translate(1088,617)"/>
<path d="M0 0 C2.5 1.125 2.5 1.125 5 3 C5.625 5.9375 5.625 5.9375 5 9 C2.82635732 11.66446522 1.20758397 12.83081135 -2.23046875 13.3125 C-6.43404555 13.42221815 -8.40360265 13.39759823 -12 11 C-12 10.34 -12 9.68 -12 9 C-8.04 9 -4.08 9 0 9 C0 7.35 0 5.7 0 4 C-0.99 3.67 -1.98 3.34 -3 3 C-2.34 3 -1.68 3 -1 3 C-0.67 2.01 -0.34 1.02 0 0 Z " fill="#989999" transform="translate(404,627)"/>
<path d="M0 0 C3.875 1.875 3.875 1.875 5 3 C5.37881436 6.40932922 5.36000519 8.37817286 3.625 11.375 C-0.35500405 13.83881203 -4.42988258 13.65614374 -9 13 C-9.99 12.34 -10.98 11.68 -12 11 C-11.67 10.01 -11.34 9.02 -11 8 C-7.37 8 -3.74 8 0 8 C-0.33 6.35 -0.66 4.7 -1 3 C-0.67 2.01 -0.34 1.02 0 0 Z " fill="#9F9FA0" transform="translate(1215,627)"/>
<path d="M0 0 C1.32 0 2.64 0 4 0 C4 7.59 4 15.18 4 23 C2.68 23 1.36 23 0 23 C0 15.41 0 7.82 0 0 Z " fill="#807F7F" transform="translate(1169,617)"/>
<path d="M0 0 C1.32 0 2.64 0 4 0 C4 7.59 4 15.18 4 23 C2.68 23 1.36 23 0 23 C0 15.41 0 7.82 0 0 Z " fill="#828281" transform="translate(681,617)"/>
<path d="M0 0 C0.66 0.99 1.32 1.98 2 3 C-8.27572937 5.81615177 -18.42135126 8.58529049 -29 10 C-24.72598478 6.54217124 -20.20867099 5.08207351 -15.0625 3.3125 C-14.16853516 2.99216797 -13.27457031 2.67183594 -12.35351562 2.34179688 C-11.05124023 1.88836914 -11.05124023 1.88836914 -9.72265625 1.42578125 C-8.93640869 1.15161377 -8.15016113 0.87744629 -7.34008789 0.5949707 C-4.73626789 -0.06705427 -2.67276139 -0.31732565 0 0 Z " fill="#1973C0" transform="translate(492,383)"/>
<path d="M0 0 C1.65 0 3.3 0 5 0 C4.54856318 1.59739183 4.09300046 3.19369154 3.62109375 4.78515625 C3.17240874 6.38518392 2.77498772 7.99988902 2.41015625 9.62109375 C1.77264327 12.22018514 1.14173236 14.57773644 0 17 C-3.1875 18.625 -3.1875 18.625 -6 19 C-6.33 17.35 -6.66 15.7 -7 14 C-6.01 14.495 -6.01 14.495 -5 15 C-3.35 10.05 -1.7 5.1 0 0 Z " fill="#979898" transform="translate(1055,617)"/>
<path d="M0 0 C1.32 0 2.64 0 4 0 C4 7.26 4 14.52 4 22 C2.68 22 1.36 22 0 22 C0 14.74 0 7.48 0 0 Z " fill="#898989" transform="translate(383,617)"/>
<path d="M0 0 C-0.71606445 1.93457031 -0.71606445 1.93457031 -2 4 C-4.04370117 4.72949219 -4.04370117 4.72949219 -6.54296875 5.046875 C-7.45240234 5.16933594 -8.36183594 5.29179687 -9.29882812 5.41796875 C-10.7287207 5.58232422 -10.7287207 5.58232422 -12.1875 5.75 C-13.12142578 5.87503906 -14.05535156 6.00007813 -15.01757812 6.12890625 C-20.04906701 6.7733334 -24.92950538 7.14026265 -30 7 C-27.65575881 4.65575881 -26.39474749 4.43844835 -23.203125 3.7109375 C-22.2440625 3.49179687 -21.285 3.27265625 -20.296875 3.046875 C-19.29140625 2.82515625 -18.2859375 2.6034375 -17.25 2.375 C-16.26 2.14554687 -15.27 1.91609375 -14.25 1.6796875 C-9.4292818 0.59695935 -4.97534987 -0.32153622 0 0 Z " fill="#264CA7" transform="translate(553,382)"/>
<path d="M0 0 C5.02475668 -0.29557392 7.92352591 -0.0282379 12 3 C14 5 14 5 14.1953125 7.8203125 C14.16050781 9.45613281 14.16050781 9.45613281 14.125 11.125 C14.10695313 12.22070312 14.08890625 13.31640625 14.0703125 14.4453125 C14.04710937 15.28835938 14.02390625 16.13140625 14 17 C12 16 12 16 11.21875 14.00390625 C10.9815625 13.19824219 10.744375 12.39257812 10.5 11.5625 C9.42683488 7.90617965 9.42683488 7.90617965 7 5 C4.67724823 4.59952556 2.34260643 4.2602896 0 4 C0 2.68 0 1.36 0 0 Z " fill="#808080" transform="translate(697,616)"/>
<path d="M0 0 C-1.92792801 3.85585603 -7.1272298 4.64658798 -11 6 C-13.96781007 6.97655447 -16.947716 7.90561153 -19.9375 8.8125 C-20.68322266 9.04364502 -21.42894531 9.27479004 -22.19726562 9.51293945 C-27.64421047 11.11859651 -27.64421047 11.11859651 -31 10 C-27.72442384 8.30028066 -24.42746521 6.64678184 -21.125 5 C-19.74828125 4.28457031 -19.74828125 4.28457031 -18.34375 3.5546875 C-12.00918077 0.43201253 -7.04972776 -0.68983474 0 0 Z " fill="#6DB455" transform="translate(525,355)"/>
<path d="M0 0 C0.33 0 0.66 0 1 0 C1.33 2.64 1.66 5.28 2 8 C2.99 7.34 3.98 6.68 5 6 C5 11.28 5 16.56 5 22 C3.35 22.33 1.7 22.66 0 23 C0 15.41 0 7.82 0 0 Z " fill="#A0A0A0" transform="translate(717,617)"/>
<path d="M0 0 C0.99 0.66 1.98 1.32 3 2 C3 2.66 3 3.32 3 4 C-9.21 4 -21.42 4 -34 4 C-34 3.34 -34 2.68 -34 2 C-22.78 2 -11.56 2 0 2 C0 1.34 0 0.68 0 0 Z " fill="#315CAD" transform="translate(891,541)"/>
<path d="M0 0 C0.53109375 0.65484375 1.0621875 1.3096875 1.609375 1.984375 C4.68290067 4.575779 6.29289587 4.42204801 10.25 4.25 C11.32765625 4.21390625 12.4053125 4.1778125 13.515625 4.140625 C14.33546875 4.09421875 15.1553125 4.0478125 16 4 C15.6875 5.9375 15.6875 5.9375 15 8 C10.9554234 9.3481922 7.22907135 9.57029509 3 9 C-0.0625 7 -0.0625 7 -2 5 C-1.34 3.35 -0.68 1.7 0 0 Z " fill="#828182" transform="translate(972,631)"/>
<path d="M0 0 C0.33 0 0.66 0 1 0 C1.268125 1.258125 1.53625 2.51625 1.8125 3.8125 C2.8874456 8.0560444 2.8874456 8.0560444 6 11 C8.59915538 12.19027984 8.59915538 12.19027984 11 13 C11 13.66 11 14.32 11 15 C3.90225564 15.60150376 3.90225564 15.60150376 0 13 C-2.72429524 8.91355714 -2.55534301 6.83941768 -2 2 C-1.34 1.34 -0.68 0.68 0 0 Z " fill="#838384" transform="translate(899,625)"/>
<path d="M0 0 C0.99 0 1.98 0 3 0 C3.268125 1.258125 3.53625 2.51625 3.8125 3.8125 C4.62037502 7.0157527 5.1881664 9.05334597 8 11 C10.09989652 12.17574711 10.09989652 12.17574711 12 13 C11.67 13.66 11.34 14.32 11 15 C4.77777778 15.5982906 4.77777778 15.5982906 1.5625 13.125 C-0.6355471 8.72890579 -0.33729606 4.82520752 0 0 Z " fill="#838383" transform="translate(944,625)"/>
<path d="M0 0 C0.33 0 0.66 0 1 0 C1.76870092 10.71056619 1.76870092 10.71056619 -0.9375 15.25 C-5.05781838 17.60446764 -8.36452812 17.45445803 -13 17 C-12.67 16.34 -12.34 15.68 -12 15 C-9.6859378 14.26924352 -7.35171131 13.59861742 -5 13 C-4.67 9.7 -4.34 6.4 -4 3 C-3.01 3 -2.02 3 -1 3 C-1.020625 4.134375 -1.04125 5.26875 -1.0625 6.4375 C-1.41577477 9.81575674 -1.41577477 9.81575674 0 11 C0 7.37 0 3.74 0 0 Z " fill="#898989" transform="translate(711,622)"/>
<path d="M0 0 C1.32 0 2.64 0 4 0 C2.39334698 5.68507992 0.70695733 11.34428139 -1 17 C-1.33 16.34 -1.66 15.68 -2 15 C-3.98 15.99 -3.98 15.99 -6 17 C-4.49829538 11.01448228 -3.05773837 5.38744379 0 0 Z " fill="#99999A" transform="translate(768,617)"/>
<path d="M0 0 C2.63920145 1.27703296 3.56553088 2.33075868 4.9375 4.9375 C5.125 8.6875 5.125 8.6875 4.9375 11.9375 C1.9675 11.9375 -1.0025 11.9375 -4.0625 11.9375 C-3.7325 11.2775 -3.4025 10.6175 -3.0625 9.9375 C-1.7425 9.9375 -0.4225 9.9375 0.9375 9.9375 C0.29828035 7.46122901 0.29828035 7.46122901 -1.0625 4.9375 C-3.58622901 3.57671965 -3.58622901 3.57671965 -6.0625 2.9375 C-2.68149179 -0.08125733 -2.68149179 -0.08125733 0 0 Z " fill="#848484" transform="translate(567.0625,617.0625)"/>
<path d="M0 0 C-2.33333333 2.33333333 -4.66666667 4.66666667 -7 7 C-7.45811675 8.97235333 -7.45811675 8.97235333 -7.625 11.125 C-7.810625 13.043125 -7.810625 13.043125 -8 15 C-8.33 15 -8.66 15 -9 15 C-9.33 13.35 -9.66 11.7 -10 10 C-10.33 10 -10.66 10 -11 10 C-11.33 12.31 -11.66 14.62 -12 17 C-12.33 17 -12.66 17 -13 17 C-13.86097841 7.31877615 -13.86097841 7.31877615 -10.625 3.4375 C-6.84794567 -0.06976474 -5.06321848 -0.11006997 0 0 Z " fill="#9C9C9C" transform="translate(956,616)"/>
<path d="M0 0 C1.670625 0.061875 1.670625 0.061875 3.375 0.125 C3.625 2.4375 3.625 2.4375 3.375 5.125 C1.625 7 1.625 7 -0.625 8.125 C-2.875 7.8125 -2.875 7.8125 -4.625 7.125 C-5.25 4.75 -5.25 4.75 -5.625 2.125 C-3.625 0.125 -3.625 0.125 0 0 Z " fill="#EFEFEF" transform="translate(1138.625,628.875)"/>
<path d="M0 0 C1.670625 0.061875 1.670625 0.061875 3.375 0.125 C3.5 2.5 3.5 2.5 3.375 5.125 C1.375 7.125 1.375 7.125 -1.75 7.25 C-3.173125 7.188125 -3.173125 7.188125 -4.625 7.125 C-5.25 4.75 -5.25 4.75 -5.625 2.125 C-3.625 0.125 -3.625 0.125 0 0 Z " fill="#F4F4F4" transform="translate(502.625,628.875)"/>
<path d="M0 0 C0.99 0 1.98 0 3 0 C3 1.32 3 2.64 3 4 C6.63 4 10.26 4 14 4 C12 6 12 6 9.8359375 6.1953125 C8.61777344 6.16050781 8.61777344 6.16050781 7.375 6.125 C6.55773437 6.10695313 5.74046875 6.08890625 4.8984375 6.0703125 C4.27195312 6.04710937 3.64546875 6.02390625 3 6 C2.34 7.65 1.68 9.3 1 11 C0.34 10.67 -0.32 10.34 -1 10 C-1.125 3.375 -1.125 3.375 0 0 Z " fill="#7C7B7B" transform="translate(970,623)"/>
<path d="M0 0 C0.33 0 0.66 0 1 0 C1 2.31 1 4.62 1 7 C1.66 7 2.32 7 3 7 C3 9.97 3 12.94 3 16 C-0.63 16 -4.26 16 -8 16 C-7.67 15.34 -7.34 14.68 -7 14 C-6.360625 13.855625 -5.72125 13.71125 -5.0625 13.5625 C-2.61789145 13.13834965 -2.61789145 13.13834965 -1 10 C-0.54398739 7.49103314 -0.54398739 7.49103314 -0.375 4.8125 C-0.30023437 3.91144531 -0.22546875 3.01039063 -0.1484375 2.08203125 C-0.09945312 1.39496094 -0.05046875 0.70789063 0 0 Z " fill="#7E7E7E" transform="translate(543,623)"/>
<path d="M0 0 C3.0625 0.1875 3.0625 0.1875 5.0625 2.1875 C5.0625 3.5075 5.0625 4.8275 5.0625 6.1875 C1.7625 6.1875 -1.5375 6.1875 -4.9375 6.1875 C-3.87127483 0.24710265 -3.87127483 0.24710265 0 0 Z " fill="#F5F5F5" transform="translate(978.9375,619.8125)"/>
<path d="M0 0 C2.5625 0.3125 2.5625 0.3125 4.375 1.625 C5.5625 3.3125 5.5625 3.3125 5.5625 6.3125 C1.9325 6.3125 -1.6975 6.3125 -5.4375 6.3125 C-3.98716887 0.5111755 -3.98716887 0.5111755 0 0 Z " fill="#F3F3F3" transform="translate(628.4375,619.6875)"/>
<path d="M0 0 C2.5625 0.3125 2.5625 0.3125 4.375 1.625 C5.5625 3.3125 5.5625 3.3125 5.5625 6.3125 C1.9325 6.3125 -1.6975 6.3125 -5.4375 6.3125 C-3.98716887 0.5111755 -3.98716887 0.5111755 0 0 Z " fill="#F2F2F2" transform="translate(562.4375,619.6875)"/>
<path d="M0 0 C3.0625 0.1875 3.0625 0.1875 5.0625 2.1875 C5.0625 3.5075 5.0625 4.8275 5.0625 6.1875 C1.7625 6.1875 -1.5375 6.1875 -4.9375 6.1875 C-3.87127483 0.24710265 -3.87127483 0.24710265 0 0 Z " fill="#F3F3F3" transform="translate(438.9375,619.8125)"/>
<path d="M0 0 C2.5625 0.375 2.5625 0.375 4.375 2.25 C5.5625 4.375 5.5625 4.375 5.5625 6.375 C1.9325 6.375 -1.6975 6.375 -5.4375 6.375 C-3.9975 0.615 -3.9975 0.615 0 0 Z " fill="#F3F3F3" transform="translate(1072.4375,619.625)"/>
<path d="M0 0 C0.66 0.33 1.32 0.66 2 1 C1.855625 1.66 1.71125 2.32 1.5625 3 C0.87700084 6.65599551 0.43824485 10.30622195 0 14 C-0.33 14 -0.66 14 -1 14 C-1.33 12.35 -1.66 10.7 -2 9 C-2.99 12.465 -2.99 12.465 -4 16 C-4.33 16 -4.66 16 -5 16 C-5.76681614 7.37757848 -5.76681614 7.37757848 -3.88671875 4 C-2.5 2.375 -2.5 2.375 0 0 Z " fill="#929292" transform="translate(901,617)"/>
<path d="M0 0 C1.50433594 0.01353516 1.50433594 0.01353516 3.0390625 0.02734375 C3.80992187 0.03894531 4.58078125 0.05054688 5.375 0.0625 C5.045 1.0525 4.715 2.0425 4.375 3.0625 C2.44921875 3.7578125 2.44921875 3.7578125 0.0625 4.1875 C-1.10732422 4.40792969 -1.10732422 4.40792969 -2.30078125 4.6328125 C-3.45126953 4.84550781 -3.45126953 4.84550781 -4.625 5.0625 C-5.96083795 5.3856499 -7.29513726 5.71557929 -8.625 6.0625 C-8.25 3.625 -8.25 3.625 -7.625 1.0625 C-4.98041621 -0.25979189 -2.94738699 -0.03427194 0 0 Z " fill="#828283" transform="translate(823.625,616.9375)"/>
<path d="M0 0 C0 0.33 0 0.66 0 1 C-0.763125 1.061875 -1.52625 1.12375 -2.3125 1.1875 C-5.12877852 1.77365307 -5.12877852 1.77365307 -6.75 4.0625 C-8.33433776 7.78569373 -8.65870187 10.9726821 -9 15 C-9.33 15 -9.66 15 -10 15 C-10.33 12.69 -10.66 10.38 -11 8 C-11.66 8 -12.32 8 -13 8 C-10.64175733 0.72875178 -7.4631798 -0.43056807 0 0 Z " fill="#989898" transform="translate(1192,616)"/>
<path d="M0 0 C1.58294782 -0.05437607 3.16644256 -0.09296271 4.75 -0.125 C5.63171875 -0.14820313 6.5134375 -0.17140625 7.421875 -0.1953125 C10.1135858 0.00860498 11.69904974 0.63448279 14 2 C14 2.99 14 3.98 14 5 C12.041036 4.69147815 10.08284287 4.3780582 8.125 4.0625 C7.03445313 3.88847656 5.94390625 3.71445312 4.8203125 3.53515625 C2 3 2 3 0 2 C0 1.34 0 0.68 0 0 Z " fill="#848485" transform="translate(795,608)"/>
<path d="M0 0 C0.66 0 1.32 0 2 0 C2 2.97 2 5.94 2 9 C0.22950311 9.05410687 -1.54146849 9.09284119 -3.3125 9.125 C-4.79169922 9.15980469 -4.79169922 9.15980469 -6.30078125 9.1953125 C-9 9 -9 9 -12 7 C-8.37 7 -4.74 7 -1 7 C-0.67 4.69 -0.34 2.38 0 0 Z " fill="#7B7B7C" transform="translate(446,620)"/>
<path d="M0 0 C0.90105469 0.02707031 1.80210937 0.05414062 2.73046875 0.08203125 C3.76107422 0.13423828 3.76107422 0.13423828 4.8125 0.1875 C4.4825 1.1775 4.1525 2.1675 3.8125 3.1875 C2.74 3.31125 1.6675 3.435 0.5625 3.5625 C-2.56613615 4.08393936 -4.52230424 4.58838254 -7.1875 6.1875 C-7.5175 5.1975 -7.8475 4.2075 -8.1875 3.1875 C-5.67753317 0.01043235 -3.96125134 -0.15433447 0 0 Z " fill="#7C7C7C" transform="translate(439.1875,616.8125)"/>
<path d="M0 0 C2.10388569 -0.05402274 4.20816714 -0.09280256 6.3125 -0.125 C8.07013672 -0.15980469 8.07013672 -0.15980469 9.86328125 -0.1953125 C13 0 13 0 16 2 C15.67 2.99 15.34 3.98 15 5 C11.37 4.67 7.74 4.34 4 4 C4 3.34 4 2.68 4 2 C2.68 1.34 1.36 0.68 0 0 Z " fill="#979798" transform="translate(596,608)"/>
<path d="M0 0 C-0.375 1.9375 -0.375 1.9375 -1 4 C-3.40545638 5.20272819 -4.94996953 5.10071472 -7.625 5.0625 C-8.85089844 5.04896484 -8.85089844 5.04896484 -10.1015625 5.03515625 C-11.04128906 5.01775391 -11.04128906 5.01775391 -12 5 C-12 4.34 -12 3.68 -12 3 C-8.17936061 0.45290708 -4.56711438 0 0 0 Z " fill="#929293" transform="translate(1081,635)"/>
<path d="M0 0 C1.32 0 2.64 0 4 0 C4.99 3.3 5.98 6.6 7 10 C5.35 9.67 3.7 9.34 2 9 C0.13992075 5.72271751 0 3.8340246 0 0 Z " fill="#909090" transform="translate(752,617)"/>
<path d="M0 0 C0.66 0.33 1.32 0.66 2 1 C2 1.99 2 2.98 2 4 C-0.26860837 4.5304408 -2.53998489 5.04905434 -4.8125 5.5625 C-6.70935547 5.99755859 -6.70935547 5.99755859 -8.64453125 6.44140625 C-12 7 -12 7 -15 6 C-12.54524486 4.96971956 -10.08685649 3.95054496 -7.625 2.9375 C-6.57699219 2.49567383 -6.57699219 2.49567383 -5.5078125 2.04492188 C-3.69495092 1.30408902 -1.84876857 0.64603036 0 0 Z " fill="#2776C4" transform="translate(478,386)"/>
<path d="M0 0 C0 0.99 0 1.98 0 3 C-3.21182149 4.90608098 -5.53882603 5.22266247 -9.25 5.125 C-10.14203125 5.10695313 -11.0340625 5.08890625 -11.953125 5.0703125 C-12.96632813 5.03550781 -12.96632813 5.03550781 -14 5 C-14 4.67 -14 4.34 -14 4 C-12.02 4 -10.04 4 -8 4 C-8 3.34 -8 2.68 -8 2 C-8.99 1.67 -9.98 1.34 -11 1 C-7.26513121 0.4254048 -3.78706732 0 0 0 Z " fill="#8E8E8F" transform="translate(809,635)"/>
<path d="M0 0 C2.875 -0.125 2.875 -0.125 6 0 C6.66 0.66 7.32 1.32 8 2 C7.625 4.625 7.625 4.625 7 7 C6.34 7 5.68 7 5 7 C5 6.34 5 5.68 5 5 C3.02 4.34 1.04 3.68 -1 3 C-0.67 2.01 -0.34 1.02 0 0 Z " fill="#848586" transform="translate(850,617)"/>
<path d="M0 0 C1.32 0.66 2.64 1.32 4 2 C3.01 3.98 2.02 5.96 1 8 C0.34 7.34 -0.32 6.68 -1 6 C-2.58272601 7.58272601 -2.34735747 9.38034003 -2.5625 11.5625 C-2.64628906 12.38878906 -2.73007812 13.21507812 -2.81640625 14.06640625 C-2.87699219 14.70449219 -2.93757812 15.34257813 -3 16 C-3.33 16 -3.66 16 -4 16 C-4.47617251 9.30713088 -4.39973696 5.22468764 0 0 Z " fill="#949494" transform="translate(622,618)"/>
<path d="M0 0 C0.99 0 1.98 0 3 0 C3 0.66 3 1.32 3 2 C3.66 2 4.32 2 5 2 C5.33 2.99 5.66 3.98 6 5 C5.01 5.33 4.02 5.66 3 6 C3 7.65 3 9.3 3 11 C2.01 10.34 1.02 9.68 0 9 C-0.29296875 6.8359375 -0.29296875 6.8359375 -0.1875 4.375 C-0.16042969 3.55773437 -0.13335938 2.74046875 -0.10546875 1.8984375 C-0.05326172 0.95871094 -0.05326172 0.95871094 0 0 Z " fill="#8B8B8C" transform="translate(718,617)"/>
<path d="M0 0 C0.66 0 1.32 0 2 0 C2.33 1.32 2.66 2.64 3 4 C4.32 3.67 5.64 3.34 7 3 C6.67 4.65 6.34 6.3 6 8 C4.35 8 2.7 8 1 8 C-0.42944945 5.64561267 -1.08661261 4.51967567 -0.625 1.75 C-0.41875 1.1725 -0.2125 0.595 0 0 Z " fill="#7F8081" transform="translate(1046,631)"/>
<path d="M0 0 C1.98 0 3.96 0 6 0 C6 1.98 6 3.96 6 6 C4.02 6 2.04 6 0 6 C0 4.02 0 2.04 0 0 Z " fill="#9C9C9C" transform="translate(680,606)"/>
<path d="M0 0 C0.99 0 1.98 0 3 0 C3 3.96 3 7.92 3 12 C2.01 12 1.02 12 0 12 C0 8.04 0 4.08 0 0 Z " fill="#7C7B7B" transform="translate(1032,627)"/>
<path d="M0 0 C0.66 0.33 1.32 0.66 2 1 C2.94934202 3.92713788 3.23176473 5.42831368 2.0625 8.3125 C1.5365625 9.1478125 1.5365625 9.1478125 1 10 C-0.32 10 -1.64 10 -3 10 C-2.01 6.7 -1.02 3.4 0 0 Z " fill="#949494" transform="translate(759,639)"/>
<path d="M0 0 C0.66 0 1.32 0 2 0 C1 3 1 3 -1 4 C-2.70702735 4.06996014 -4.41668003 4.08440154 -6.125 4.0625 C-7.03507812 4.05347656 -7.94515625 4.04445313 -8.8828125 4.03515625 C-9.58148438 4.02355469 -10.28015625 4.01195312 -11 4 C-11 3.34 -11 2.68 -11 2 C-8.70961976 0.85480988 -7.46931463 0.92648088 -4.9375 1 C-3.638125 1 -2.33875 1 -1 1 C-0.67 0.67 -0.34 0.34 0 0 Z " fill="#818182" transform="translate(446,636)"/>
<path d="M0 0 C2.97 0 5.94 0 9 0 C9.33 1.32 9.66 2.64 10 4 C6.37 3.67 2.74 3.34 -1 3 C-0.67 2.01 -0.34 1.02 0 0 Z " fill="#7F7F80" transform="translate(648,617)"/>
<path d="M0 0 C7.75 -0.125 7.75 -0.125 10 1 C10 1.99 10 2.98 10 4 C6.37 4 2.74 4 -1 4 C-0.67 2.68 -0.34 1.36 0 0 Z " fill="#828182" transform="translate(398,617)"/>
<path d="M0 0 C-0.375 1.9375 -0.375 1.9375 -1 4 C-3.52475462 5.26237731 -5.31200466 5.09856404 -8.125 5.0625 C-9.03507813 5.05347656 -9.94515625 5.04445313 -10.8828125 5.03515625 C-11.58148437 5.02355469 -12.28015625 5.01195312 -13 5 C-13 4.67 -13 4.34 -13 4 C-9.535 3.505 -9.535 3.505 -6 3 C-7.32 2.34 -8.64 1.68 -10 1 C-3.375 0 -3.375 0 0 0 Z " fill="#949494" transform="translate(571,635)"/>
<path d="M0 0 C0.99 0.99 1.98 1.98 3 3 C2.34 5.31 1.68 7.62 1 10 C-2.96 10 -6.92 10 -11 10 C-10.67 9.01 -10.34 8.02 -10 7 C-10 7.66 -10 8.32 -10 9 C-6.7 9 -3.4 9 0 9 C-0.37125 8.071875 -0.7425 7.14375 -1.125 6.1875 C-1.41375 5.135625 -1.7025 4.08375 -2 3 C-1.34 2.01 -0.68 1.02 0 0 Z " fill="#919192" transform="translate(444,617)"/>
<path d="M0 0 C-0.3125 1.9375 -0.3125 1.9375 -1 4 C-3.88211302 4.96070434 -5.69850044 5.10581883 -8.6875 5.0625 C-9.89986328 5.04896484 -9.89986328 5.04896484 -11.13671875 5.03515625 C-12.05904297 5.01775391 -12.05904297 5.01775391 -13 5 C-13 4.67 -13 4.34 -13 4 C-10.36 3.67 -7.72 3.34 -5 3 C-7.97 2.505 -7.97 2.505 -11 2 C-11 1.67 -11 1.34 -11 1 C-3.375 0 -3.375 0 0 0 Z " fill="#9D9D9E" transform="translate(988,635)"/>
<path d="M0 0 C-0.375 1.9375 -0.375 1.9375 -1 4 C-3.52475462 5.26237731 -5.31200466 5.09856404 -8.125 5.0625 C-9.03507813 5.05347656 -9.94515625 5.04445313 -10.8828125 5.03515625 C-11.58148437 5.02355469 -12.28015625 5.01195312 -13 5 C-13 4.67 -13 4.34 -13 4 C-10.36 3.67 -7.72 3.34 -5 3 C-6.65 2.67 -8.3 2.34 -10 2 C-10 1.67 -10 1.34 -10 1 C-3.375 0 -3.375 0 0 0 Z " fill="#969696" transform="translate(637,635)"/>
<path d="M0 0 C5.79152098 0.36771562 5.79152098 0.36771562 8 1 C8.66 1.99 9.32 2.98 10 4 C2.49230769 4.36923077 2.49230769 4.36923077 0 2.5 C-0.33 2.005 -0.66 1.51 -1 1 C-0.67 0.67 -0.34 0.34 0 0 Z " fill="#808081" transform="translate(647,626)"/>
<path d="M0 0 C3.33333333 0 6.66666667 0 10 0 C10 0.99 10 1.98 10 3 C6.7 3.33 3.4 3.66 0 4 C0 2.68 0 1.36 0 0 Z " fill="#939494" transform="translate(1155,617)"/>
<path d="M0 0 C1.65 0 3.3 0 5 0 C5 1.98 5 3.96 5 6 C3.35 6 1.7 6 0 6 C0 4.02 0 2.04 0 0 Z " fill="#ACACAC" transform="translate(382,606)"/>
<path d="M0 0 C-1.24313463 3.72940389 -2.76985216 4.84656811 -6 7 C-6.99 6.67 -7.98 6.34 -9 6 C-4.5 0 -4.5 0 0 0 Z " fill="#959696" transform="translate(707,607)"/>
<path d="M0 0 C3.96 0.33 7.92 0.66 12 1 C12 1.66 12 2.32 12 3 C8.37 3 4.74 3 1 3 C0.67 2.01 0.34 1.02 0 0 Z " fill="#767677" transform="translate(642,636)"/>
<path d="M0 0 C3.96 0.33 7.92 0.66 12 1 C11.67 1.66 11.34 2.32 11 3 C7.7 3 4.4 3 1 3 C0.67 2.01 0.34 1.02 0 0 Z " fill="#807F80" transform="translate(1203,636)"/>
<path d="M0 0 C-1.98 0.99 -1.98 0.99 -4 2 C-3.34 2.66 -2.68 3.32 -2 4 C-3.98 4.66 -5.96 5.32 -8 6 C-8.66 4.68 -9.32 3.36 -10 2 C-6.3558226 -0.4294516 -4.28758728 -0.16179575 0 0 Z " fill="#A1A1A2" transform="translate(1076,616)"/>
<path d="M0 0 C1.65 0.33 3.3 0.66 5 1 C5.33 2.32 5.66 3.64 6 5 C2.37 4.67 -1.26 4.34 -5 4 C-5 3.67 -5 3.34 -5 3 C-3.02 3 -1.04 3 1 3 C0.67 2.01 0.34 1.02 0 0 Z " fill="#9A9A9B" transform="translate(370,608)"/>
<path d="M0 0 C2.64 0 5.28 0 8 0 C7.67 0.99 7.34 1.98 7 3 C4.69 3.33 2.38 3.66 0 4 C0 2.68 0 1.36 0 0 Z " fill="#7E7E7F" transform="translate(903,617)"/>
<path d="M0 0 C0.66 0.33 1.32 0.66 2 1 C2.33 1.99 2.66 2.98 3 4 C5.00016466 5.20882096 5.00016466 5.20882096 7 6 C4.6739143 6.38063221 2.33944736 6.71269945 0 7 C-1 6 -1 6 -1.125 3.5 C-1 1 -1 1 0 0 Z " fill="#929292" transform="translate(495,631)"/>
<path d="M0 0 C2.97 0 5.94 0 9 0 C8.67 0.99 8.34 1.98 8 3 C5.36 3 2.72 3 0 3 C0 2.01 0 1.02 0 0 Z " fill="#747475" transform="translate(820,617)"/>
<path d="M0 0 C-0.99 0.33 -1.98 0.66 -3 1 C-3 1.66 -3 2.32 -3 3 C-4.32 3.33 -5.64 3.66 -7 4 C-7.33 2.68 -7.66 1.36 -8 0 C-5.13822943 -1.43088528 -3.06624227 -0.59991697 0 0 Z " fill="#999A9A" transform="translate(1137,618)"/>
<path d="M0 0 C2.64 0 5.28 0 8 0 C8 0.99 8 1.98 8 3 C5.69 3 3.38 3 1 3 C0.67 2.01 0.34 1.02 0 0 Z " fill="#757576" transform="translate(624,617)"/>
<path d="M0 0 C0.6875 1.8125 0.6875 1.8125 1 4 C-0.15625 5.625 -0.15625 5.625 -2 7 C-4.48046875 7.29296875 -4.48046875 7.29296875 -7.1875 7.1875 C-8.53908203 7.14689453 -8.53908203 7.14689453 -9.91796875 7.10546875 C-10.60503906 7.07066406 -11.29210937 7.03585937 -12 7 C-12 6.67 -12 6.34 -12 6 C-9.03 6 -6.06 6 -3 6 C-2.34 4.68 -1.68 3.36 -1 2 C-0.67 1.34 -0.34 0.68 0 0 Z " fill="#929192" transform="translate(657,633)"/>
<path d="M0 0 C0 3 0 3 -1.53125 4.60546875 C-2.1809375 5.12753906 -2.830625 5.64960938 -3.5 6.1875 C-4.1496875 6.71730469 -4.799375 7.24710937 -5.46875 7.79296875 C-5.9740625 8.19128906 -6.479375 8.58960938 -7 9 C-7.66 8.67 -8.32 8.34 -9 8 C-6.03 5.36 -3.06 2.72 0 0 Z " fill="#235FB9" transform="translate(701,422)"/>
<path d="M0 0 C2.64 0 5.28 0 8 0 C7.67 0.66 7.34 1.32 7 2 C4.93359375 2.6328125 4.93359375 2.6328125 2.4375 3.125 C1.19806641 3.37636719 1.19806641 3.37636719 -0.06640625 3.6328125 C-0.70449219 3.75398438 -1.34257813 3.87515625 -2 4 C-1.34 2.68 -0.68 1.36 0 0 Z " fill="#62A740" transform="translate(517,355)"/>
<path d="M0 0 C1.65 0 3.3 0 5 0 C4.34 1.65 3.68 3.3 3 5 C2.01 5 1.02 5 0 5 C0 3.35 0 1.7 0 0 Z " fill="#8D8D8E" transform="translate(1055,617)"/>
<path d="M0 0 C3.63 0.33 7.26 0.66 11 1 C11 1.33 11 1.66 11 2 C7.7 2.33 4.4 2.66 1 3 C0.67 2.01 0.34 1.02 0 0 Z " fill="#808081" transform="translate(392,636)"/>
<path d="M0 0 C1.32 0 2.64 0 4 0 C3.1875 2.4375 3.1875 2.4375 2 5 C1.01 5.33 0.02 5.66 -1 6 C-0.67 4.02 -0.34 2.04 0 0 Z " fill="#868687" transform="translate(768,617)"/>
<path d="M0 0 C1.32 0 2.64 0 4 0 C4 1.65 4 3.3 4 5 C2.68 5 1.36 5 0 5 C0 3.35 0 1.7 0 0 Z " fill="#908F8F" transform="translate(1169,606)"/>
<path d="M0 0 C-0.33 0.99 -0.66 1.98 -1 3 C-2.98 3 -4.96 3 -7 3 C-7.33 2.34 -7.66 1.68 -8 1 C-5.07175348 0.02391783 -3.04386724 -0.08226668 0 0 Z " fill="#7B7B7C" transform="translate(1142,626)"/>
<path d="M0 0 C-3.82517513 2.39073445 -7.59665524 2.55966552 -12 3 C-7.74687289 -0.37316977 -5.33599971 -1.29794588 0 0 Z " fill="#458DD2" transform="translate(475,390)"/>
<path d="M0 0 C1.32 0.66 2.64 1.32 4 2 C4 2.99 4 3.98 4 5 C2.68 4.67 1.36 4.34 0 4 C0 2.68 0 1.36 0 0 Z " fill="#929293" transform="translate(358,634)"/>
<path d="M0 0 C2.475 0.495 2.475 0.495 5 1 C5 1.99 5 2.98 5 4 C3.35 4 1.7 4 0 4 C0 2.68 0 1.36 0 0 Z " fill="#868788" transform="translate(1210,626)"/>
<path d="M0 0 C0.33 0 0.66 0 1 0 C1.1875 2.875 1.1875 2.875 1 6 C0.01 6.66 -0.98 7.32 -2 8 C-2.125 5.125 -2.125 5.125 -2 2 C-1.34 1.34 -0.68 0.68 0 0 Z " fill="#797878" transform="translate(899,625)"/>
<path d="M0 0 C2.31 0 4.62 0 7 0 C6.67 0.99 6.34 1.98 6 3 C4.02 3 2.04 3 0 3 C0 2.01 0 1.02 0 0 Z " fill="#7D7D7D" transform="translate(1186,617)"/>
<path d="M0 0 C-0.66 0.66 -1.32 1.32 -2 2 C-4.72869407 1.96712417 -7.2966618 1.43602229 -10 1 C-10 0.67 -10 0.34 -10 0 C-6.33694766 -0.74926071 -3.57644848 -1.2380014 0 0 Z " fill="#204CA5" transform="translate(551,383)"/>
<path d="M0 0 C2.31 0.33 4.62 0.66 7 1 C6.67 1.99 6.34 2.98 6 4 C4.35 3.67 2.7 3.34 1 3 C0.67 2.01 0.34 1.02 0 0 Z " fill="#7A7A7B" transform="translate(397,626)"/>
<path d="M0 0 C1.65 0 3.3 0 5 0 C5 0.99 5 1.98 5 3 C3.02 3 1.04 3 -1 3 C-0.67 2.01 -0.34 1.02 0 0 Z " fill="#7A7A7A" transform="translate(1120,617)"/>
<path d="M0 0 C1.98 0 3.96 0 6 0 C5.67 0.99 5.34 1.98 5 3 C3.02 3 1.04 3 -1 3 C-0.67 2.01 -0.34 1.02 0 0 Z " fill="#7A797A" transform="translate(977,617)"/>
<path d="M0 0 C2.97 0.33 5.94 0.66 9 1 C9 1.33 9 1.66 9 2 C5.7 2.66 2.4 3.32 -1 4 C-0.67 2.68 -0.34 1.36 0 0 Z " fill="#949495" transform="translate(794,610)"/>
<path d="M0 0 C0.66 0.33 1.32 0.66 2 1 C1.01 2.485 1.01 2.485 0 4 C0.66 4.33 1.32 4.66 2 5 C0.35 5.33 -1.3 5.66 -3 6 C-2.67 5.01 -2.34 4.02 -2 3 C-2.66 2.67 -3.32 2.34 -4 2 C-2.125 0.9375 -2.125 0.9375 0 0 Z " fill="#87BE6E" transform="translate(515,355)"/>
</svg>
